SplineFontDB: 3.2
FontName: MS-Sans-Serif
FullName: MS Sans Serif Regular
FamilyName: MS Sans Serif
Weight: Book
Copyright: Copyright lou 2017
Version: 1.0
ItalicAngle: 0
UnderlinePosition: -357
UnderlineWidth: 102
Ascent: 1638
Descent: 410
InvalidEm: 0
sfntRevision: 0x00010000
LayerCount: 2
Layer: 0 1 "Back" 1
Layer: 1 1 "Fore" 0
XUID: [1021 691 -1313677770 12400143]
StyleMap: 0x0040
FSType: 4
OS2Version: 2
OS2_WeightWidthSlopeOnly: 0
OS2_UseTypoMetrics: 0
CreationTime: 1490208227
ModificationTime: 1680303275
PfmFamily: 81
TTFWeight: 400
TTFWidth: 5
LineGap: 0
VLineGap: 0
Panose: 0 0 4 0 0 0 0 0 0 0
OS2TypoAscent: 1638
OS2TypoAOffset: 0
OS2TypoDescent: -410
OS2TypoDOffset: 0
OS2TypoLinegap: 0
OS2WinAscent: 1862
OS2WinAOffset: 0
OS2WinDescent: 412
OS2WinDOffset: 0
HheadAscent: 1862
HheadAOffset: 0
HheadDescent: -412
HheadDOffset: 0
OS2SubXSize: 1024
OS2SubYSize: 1024
OS2SubXOff: 0
OS2SubYOff: -186
OS2SupXSize: 1024
OS2SupYSize: 1024
OS2SupXOff: 0
OS2SupYOff: 1024
OS2StrikeYSize: 102
OS2StrikeYPos: 410
OS2CapHeight: 3351
OS2XHeight: 2234
OS2Vendor: 'FSTR'
OS2CodePages: 00000001.00000000
OS2UnicodeRanges: 80000001.00000000.00000000.00000000
DEI: 91125
TtTable: prep
PUSHW_1
 511
SCANCTRL
PUSHB_1
 1
SCANTYPE
SVTCA[y-axis]
MPPEM
PUSHB_1
 8
LT
IF
PUSHB_2
 1
 1
INSTCTRL
EIF
PUSHB_2
 70
 6
CALL
IF
POP
PUSHB_1
 16
EIF
MPPEM
PUSHB_1
 20
GT
IF
POP
PUSHB_1
 128
EIF
SCVTCI
PUSHB_1
 6
CALL
NOT
IF
SVTCA[y-axis]
PUSHB_1
 1
DUP
RCVT
PUSHB_1
 3
CALL
WCVTP
PUSHB_1
 2
DUP
RCVT
PUSHW_3
 1
 1128
 2
CALL
PUSHB_1
 3
CALL
WCVTP
PUSHB_1
 3
DUP
RCVT
PUSHB_3
 2
 11
 2
CALL
PUSHB_1
 3
CALL
WCVTP
PUSHB_1
 4
DUP
RCVT
PUSHW_3
 3
 1153
 2
CALL
PUSHB_1
 3
CALL
WCVTP
PUSHB_1
 5
DUP
RCVT
PUSHB_3
 4
 8
 2
CALL
PUSHB_1
 3
CALL
WCVTP
PUSHB_1
 6
DUP
RCVT
PUSHW_3
 5
 1198
 2
CALL
PUSHB_1
 3
CALL
WCVTP
SVTCA[x-axis]
PUSHB_1
 7
DUP
RCVT
PUSHB_1
 3
CALL
WCVTP
PUSHB_1
 8
DUP
RCVT
PUSHW_3
 7
 1128
 2
CALL
PUSHB_2
 3
 70
SROUND
CALL
WCVTP
PUSHB_1
 9
DUP
RCVT
PUSHB_3
 8
 11
 2
CALL
PUSHB_2
 3
 70
SROUND
CALL

StartChar: .notdef
Encoding: 65536 -1 0
Width: 748
Flags: W
LayerCount: 2
Fore
SplineSet
68 0 m 1,0,-1
 68 1365 l 1,1,-1
 612 1365 l 1,2,-1
 612 0 l 1,3,-1
 68 0 l 1,0,-1
136 68 m 1,4,-1
 544 68 l 1,5,-1
 544 1297 l 1,6,-1
 136 1297 l 1,7,-1
 136 68 l 1,4,-1
EndSplineSet
Validated: 1
EndChar

StartChar: exclam
Encoding: 33 33 4
Width: 372
GlyphClass: 2
Flags: W
LayerCount: 2
Fore
SplineSet
0 0 m 1,0,-1
 0 186 l 1,1,-1
 186 186 l 1,2,-1
 186 0 l 1,3,-1
 0 0 l 1,0,-1
0 372 m 1,4,-1
 0 1676 l 1,5,-1
 186 1676 l 1,6,-1
 186 372 l 1,7,-1
 0 372 l 1,4,-1
EndSplineSet
Validated: 1
EndChar

StartChar: quotedbl
Encoding: 34 34 5
Width: 930
GlyphClass: 2
Flags: W
LayerCount: 2
Fore
SplineSet
0 1117 m 1,0,-1
 0 1676 l 1,1,-1
 186 1676 l 1,2,-1
 186 1117 l 1,3,-1
 0 1117 l 1,0,-1
558 1117 m 1,4,-1
 558 1676 l 1,5,-1
 744 1676 l 1,6,-1
 744 1117 l 1,7,-1
 558 1117 l 1,4,-1
EndSplineSet
Validated: 1
EndChar

StartChar: numbersign
Encoding: 35 35 6
Width: 1303
GlyphClass: 2
Flags: W
LayerCount: 2
Fore
SplineSet
0 372 m 1,0,-1
 0 558 l 1,1,-1
 186 558 l 1,2,-1
 186 1117 l 1,3,-1
 0 1117 l 1,4,-1
 0 1303 l 1,5,-1
 186 1303 l 1,6,-1
 186 1676 l 1,7,-1
 372 1676 l 1,8,-1
 372 1303 l 1,9,-1
 744 1303 l 1,10,-1
 744 1676 l 1,11,-1
 930 1676 l 1,12,-1
 930 1303 l 1,13,-1
 1117 1303 l 1,14,-1
 1117 1117 l 1,15,-1
 930 1117 l 1,16,-1
 930 558 l 1,17,-1
 1117 558 l 1,18,-1
 1117 372 l 1,19,-1
 930 372 l 1,20,-1
 930 0 l 1,21,-1
 744 0 l 1,22,-1
 744 372 l 1,23,-1
 372 372 l 1,24,-1
 372 0 l 1,25,-1
 186 0 l 1,26,-1
 186 372 l 1,27,-1
 0 372 l 1,0,-1
372 558 m 1,28,-1
 744 558 l 1,29,-1
 744 1117 l 1,30,-1
 372 1117 l 1,31,-1
 372 558 l 1,28,-1
EndSplineSet
Validated: 1
EndChar

StartChar: dollar
Encoding: 36 36 7
Width: 1117
GlyphClass: 2
Flags: W
LayerCount: 2
Fore
SplineSet
0 186 m 1,0,-1
 0 372 l 1,1,-1
 186 372 l 1,2,-1
 186 186 l 1,3,-1
 0 186 l 1,0,-1
0 930 m 1,4,-1
 0 1303 l 1,5,-1
 186 1303 l 1,6,-1
 186 930 l 1,7,-1
 0 930 l 1,4,-1
186 0 m 1,8,-1
 186 186 l 1,9,-1
 372 186 l 1,10,-1
 372 744 l 1,11,-1
 186 744 l 1,12,-1
 186 930 l 1,13,-1
 372 930 l 1,14,-1
 372 1303 l 1,15,-1
 186 1303 l 1,16,-1
 186 1489 l 1,17,-1
 372 1489 l 1,18,-1
 372 1676 l 1,19,-1
 558 1676 l 1,20,-1
 558 1489 l 1,21,-1
 744 1489 l 1,22,-1
 744 1303 l 1,23,-1
 558 1303 l 1,24,-1
 558 744 l 1,25,-1
 744 744 l 1,26,-1
 744 558 l 1,27,-1
 558 558 l 1,28,-1
 558 186 l 1,29,-1
 744 186 l 1,30,-1
 744 0 l 1,31,-1
 558 0 l 1,32,-1
 558 -186 l 1,33,-1
 372 -186 l 1,34,-1
 372 0 l 1,35,-1
 186 0 l 1,8,-1
744 186 m 1,36,-1
 744 558 l 1,37,-1
 930 558 l 1,38,-1
 930 186 l 1,39,-1
 744 186 l 1,36,-1
744 1117 m 1,40,-1
 744 1303 l 1,41,-1
 930 1303 l 1,42,-1
 930 1117 l 1,43,-1
 744 1117 l 1,40,-1
EndSplineSet
Validated: 5
EndChar

StartChar: percent
Encoding: 37 37 8
Width: 1489
GlyphClass: 2
Flags: W
LayerCount: 2
Fore
SplineSet
0 186 m 1,0,-1
 0 372 l 1,1,-1
 186 372 l 1,2,-1
 186 186 l 1,3,-1
 0 186 l 1,0,-1
0 1303 m 1,4,-1
 0 1489 l 1,5,-1
 186 1489 l 1,6,-1
 186 1303 l 1,7,-1
 0 1303 l 1,4,-1
186 372 m 1,8,-1
 186 558 l 1,9,-1
 372 558 l 1,10,-1
 372 372 l 1,11,-1
 186 372 l 1,8,-1
186 1117 m 1,12,-1
 186 1303 l 1,13,-1
 558 1303 l 1,14,-1
 558 1117 l 1,15,-1
 186 1117 l 1,12,-1
186 1489 m 1,16,-1
 186 1676 l 1,17,-1
 558 1676 l 1,18,-1
 558 1489 l 1,19,-1
 186 1489 l 1,16,-1
372 558 m 1,20,-1
 372 744 l 1,21,-1
 558 744 l 1,22,-1
 558 558 l 1,23,-1
 372 558 l 1,20,-1
558 186 m 1,24,-1
 558 372 l 1,25,-1
 744 372 l 1,26,-1
 744 186 l 1,27,-1
 558 186 l 1,24,-1
558 744 m 1,28,-1
 558 930 l 1,29,-1
 744 930 l 1,30,-1
 744 744 l 1,31,-1
 558 744 l 1,28,-1
558 1303 m 1,32,-1
 558 1489 l 1,33,-1
 744 1489 l 1,34,-1
 744 1303 l 1,35,-1
 558 1303 l 1,32,-1
744 0 m 1,36,-1
 744 186 l 1,37,-1
 1117 186 l 1,38,-1
 1117 0 l 1,39,-1
 744 0 l 1,36,-1
744 372 m 1,40,-1
 744 558 l 1,41,-1
 1117 558 l 1,42,-1
 1117 372 l 1,43,-1
 744 372 l 1,40,-1
744 930 m 1,44,-1
 744 1117 l 1,45,-1
 930 1117 l 1,46,-1
 930 930 l 1,47,-1
 744 930 l 1,44,-1
930 1117 m 1,48,-1
 930 1303 l 1,49,-1
 1117 1303 l 1,50,-1
 1117 1117 l 1,51,-1
 930 1117 l 1,48,-1
1117 186 m 1,52,-1
 1117 372 l 1,53,-1
 1303 372 l 1,54,-1
 1303 186 l 1,55,-1
 1117 186 l 1,52,-1
1117 1303 m 1,56,-1
 1117 1489 l 1,57,-1
 1303 1489 l 1,58,-1
 1303 1303 l 1,59,-1
 1117 1303 l 1,56,-1
EndSplineSet
Validated: 5
EndChar

StartChar: ampersand
Encoding: 38 38 9
Width: 1117
GlyphClass: 2
Flags: W
LayerCount: 2
Fore
SplineSet
0 186 m 1,0,-1
 0 744 l 1,1,-1
 186 744 l 1,2,-1
 186 186 l 1,3,-1
 0 186 l 1,0,-1
0 1117 m 1,4,-1
 0 1489 l 1,5,-1
 186 1489 l 1,6,-1
 186 1117 l 1,7,-1
 0 1117 l 1,4,-1
186 0 m 1,8,-1
 186 186 l 1,9,-1
 558 186 l 1,10,-1
 558 0 l 1,11,-1
 186 0 l 1,8,-1
186 744 m 1,12,-1
 186 1117 l 1,13,-1
 372 1117 l 1,14,-1
 372 744 l 1,15,-1
 186 744 l 1,12,-1
186 1489 m 1,16,-1
 186 1676 l 1,17,-1
 372 1676 l 1,18,-1
 372 1489 l 1,19,-1
 186 1489 l 1,16,-1
372 558 m 1,20,-1
 372 744 l 1,21,-1
 558 744 l 1,22,-1
 558 558 l 1,23,-1
 372 558 l 1,20,-1
372 1117 m 1,24,-1
 372 1489 l 1,25,-1
 558 1489 l 1,26,-1
 558 1117 l 1,27,-1
 372 1117 l 1,24,-1
558 186 m 1,28,-1
 558 558 l 1,29,-1
 744 558 l 1,30,-1
 744 186 l 1,31,-1
 558 186 l 1,28,-1
744 0 m 1,32,-1
 744 186 l 1,33,-1
 930 186 l 1,34,-1
 930 0 l 1,35,-1
 744 0 l 1,32,-1
744 558 m 1,36,-1
 744 744 l 1,37,-1
 930 744 l 1,38,-1
 930 558 l 1,39,-1
 744 558 l 1,36,-1
EndSplineSet
Validated: 5
EndChar

StartChar: quotesingle
Encoding: 39 39 10
Width: 372
GlyphClass: 2
Flags: W
LayerCount: 2
Fore
SplineSet
0 1117 m 1,0,-1
 0 1676 l 1,1,-1
 186 1676 l 1,2,-1
 186 1117 l 1,3,-1
 0 1117 l 1,0,-1
EndSplineSet
Validated: 1
EndChar

StartChar: parenleft
Encoding: 40 40 11
Width: 558
GlyphClass: 2
Flags: W
LayerCount: 2
Fore
SplineSet
0 -186 m 1,0,-1
 0 1489 l 1,1,-1
 186 1489 l 1,2,-1
 186 -186 l 1,3,-1
 0 -186 l 1,0,-1
186 -186 m 1,4,-1
 372 -186 l 1,5,-1
 372 -372 l 1,6,-1
 186 -372 l 1,7,-1
 186 -186 l 1,4,-1
186 1489 m 1,8,-1
 186 1676 l 1,9,-1
 372 1676 l 1,10,-1
 372 1489 l 1,11,-1
 186 1489 l 1,8,-1
EndSplineSet
Validated: 5
EndChar

StartChar: parenright
Encoding: 41 41 12
Width: 558
GlyphClass: 2
Flags: W
LayerCount: 2
Fore
SplineSet
0 -186 m 1,0,-1
 186 -186 l 1,1,-1
 186 -372 l 1,2,-1
 0 -372 l 1,3,-1
 0 -186 l 1,0,-1
0 1489 m 1,4,-1
 0 1676 l 1,5,-1
 186 1676 l 1,6,-1
 186 1489 l 1,7,-1
 0 1489 l 1,4,-1
186 -186 m 1,8,-1
 186 1489 l 1,9,-1
 372 1489 l 1,10,-1
 372 -186 l 1,11,-1
 186 -186 l 1,8,-1
EndSplineSet
Validated: 5
EndChar

StartChar: asterisk
Encoding: 42 42 13
Width: 744
GlyphClass: 2
Flags: W
LayerCount: 2
Fore
SplineSet
0 930 m 1,0,-1
 0 1117 l 1,1,-1
 186 1117 l 1,2,-1
 186 930 l 1,3,-1
 0 930 l 1,0,-1
0 1303 m 1,4,-1
 0 1489 l 1,5,-1
 186 1489 l 1,6,-1
 186 1303 l 1,7,-1
 0 1303 l 1,4,-1
186 1117 m 1,8,-1
 186 1303 l 1,9,-1
 372 1303 l 1,10,-1
 372 1117 l 1,11,-1
 186 1117 l 1,8,-1
372 930 m 1,12,-1
 372 1117 l 1,13,-1
 558 1117 l 1,14,-1
 558 930 l 1,15,-1
 372 930 l 1,12,-1
372 1303 m 1,16,-1
 372 1489 l 1,17,-1
 558 1489 l 1,18,-1
 558 1303 l 1,19,-1
 372 1303 l 1,16,-1
EndSplineSet
Validated: 5
EndChar

StartChar: plus
Encoding: 43 43 14
Width: 1117
GlyphClass: 2
Flags: W
LayerCount: 2
Fore
SplineSet
0 558 m 1,0,-1
 0 744 l 1,1,-1
 372 744 l 1,2,-1
 372 1117 l 1,3,-1
 558 1117 l 1,4,-1
 558 744 l 1,5,-1
 930 744 l 1,6,-1
 930 558 l 1,7,-1
 558 558 l 1,8,-1
 558 186 l 1,9,-1
 372 186 l 1,10,-1
 372 558 l 1,11,-1
 0 558 l 1,0,-1
EndSplineSet
Validated: 1
EndChar

StartChar: comma
Encoding: 44 44 15
Width: 558
GlyphClass: 2
Flags: W
LayerCount: 2
Fore
SplineSet
0 0 m 1,0,-1
 186 0 l 1,1,-1
 186 -186 l 1,2,-1
 0 -186 l 1,3,-1
 0 0 l 1,0,-1
186 0 m 1,4,-1
 186 186 l 1,5,-1
 372 186 l 1,6,-1
 372 0 l 1,7,-1
 186 0 l 1,4,-1
EndSplineSet
Validated: 5
EndChar

StartChar: hyphen
Encoding: 45 45 16
Width: 558
GlyphClass: 2
Flags: W
LayerCount: 2
Fore
SplineSet
0 558 m 1,0,-1
 0 744 l 1,1,-1
 372 744 l 1,2,-1
 372 558 l 1,3,-1
 0 558 l 1,0,-1
EndSplineSet
Validated: 1
EndChar

StartChar: period
Encoding: 46 46 17
Width: 372
GlyphClass: 2
Flags: W
LayerCount: 2
Fore
SplineSet
0 0 m 1,0,-1
 0 186 l 1,1,-1
 186 186 l 1,2,-1
 186 0 l 1,3,-1
 0 0 l 1,0,-1
EndSplineSet
Validated: 1
EndChar

StartChar: slash
Encoding: 47 47 18
Width: 930
GlyphClass: 2
Flags: W
LayerCount: 2
Fore
SplineSet
0 0 m 1,0,-1
 0 372 l 1,1,-1
 186 372 l 1,2,-1
 186 0 l 1,3,-1
 0 0 l 1,0,-1
186 372 m 1,4,-1
 186 744 l 1,5,-1
 372 744 l 1,6,-1
 372 372 l 1,7,-1
 186 372 l 1,4,-1
372 744 m 1,8,-1
 372 1117 l 1,9,-1
 558 1117 l 1,10,-1
 558 744 l 1,11,-1
 372 744 l 1,8,-1
558 1117 m 1,12,-1
 558 1676 l 1,13,-1
 744 1676 l 1,14,-1
 744 1117 l 1,15,-1
 558 1117 l 1,12,-1
EndSplineSet
Validated: 5
EndChar

StartChar: zero
Encoding: 48 48 19
Width: 1117
GlyphClass: 2
Flags: W
LayerCount: 2
Fore
SplineSet
0 186 m 1,0,-1
 0 1489 l 1,1,-1
 186 1489 l 1,2,-1
 186 186 l 1,3,-1
 0 186 l 1,0,-1
186 0 m 1,4,-1
 186 186 l 1,5,-1
 744 186 l 1,6,-1
 744 0 l 1,7,-1
 186 0 l 1,4,-1
186 1489 m 1,8,-1
 186 1676 l 1,9,-1
 744 1676 l 1,10,-1
 744 1489 l 1,11,-1
 186 1489 l 1,8,-1
744 186 m 1,12,-1
 744 1489 l 1,13,-1
 930 1489 l 1,14,-1
 930 186 l 1,15,-1
 744 186 l 1,12,-1
EndSplineSet
Validated: 5
EndChar

StartChar: one
Encoding: 49 49 20
Width: 744
GlyphClass: 2
Flags: W
LayerCount: 2
Fore
SplineSet
0 1303 m 1,0,-1
 0 1489 l 1,1,-1
 372 1489 l 1,2,-1
 372 1676 l 1,3,-1
 558 1676 l 1,4,-1
 558 0 l 1,5,-1
 372 0 l 1,6,-1
 372 1303 l 1,7,-1
 0 1303 l 1,0,-1
EndSplineSet
Validated: 1
EndChar

StartChar: two
Encoding: 50 50 21
Width: 1117
GlyphClass: 2
Flags: W
LayerCount: 2
Fore
SplineSet
0 0 m 1,0,-1
 0 372 l 1,1,-1
 186 372 l 1,2,-1
 186 186 l 1,3,-1
 930 186 l 1,4,-1
 930 0 l 1,5,-1
 0 0 l 1,0,-1
0 1303 m 1,6,-1
 0 1489 l 1,7,-1
 186 1489 l 1,8,-1
 186 1303 l 1,9,-1
 0 1303 l 1,6,-1
186 372 m 1,10,-1
 186 558 l 1,11,-1
 372 558 l 1,12,-1
 372 372 l 1,13,-1
 186 372 l 1,10,-1
186 1489 m 1,14,-1
 186 1676 l 1,15,-1
 744 1676 l 1,16,-1
 744 1489 l 1,17,-1
 186 1489 l 1,14,-1
372 558 m 1,18,-1
 372 744 l 1,19,-1
 558 744 l 1,20,-1
 558 558 l 1,21,-1
 372 558 l 1,18,-1
558 744 m 1,22,-1
 558 930 l 1,23,-1
 744 930 l 1,24,-1
 744 744 l 1,25,-1
 558 744 l 1,22,-1
744 930 m 1,26,-1
 744 1489 l 1,27,-1
 930 1489 l 1,28,-1
 930 930 l 1,29,-1
 744 930 l 1,26,-1
EndSplineSet
Validated: 5
EndChar

StartChar: three
Encoding: 51 51 22
Width: 1117
GlyphClass: 2
Flags: W
LayerCount: 2
Fore
SplineSet
0 186 m 1,0,-1
 0 372 l 1,1,-1
 186 372 l 1,2,-1
 186 186 l 1,3,-1
 0 186 l 1,0,-1
0 1303 m 1,4,-1
 0 1489 l 1,5,-1
 186 1489 l 1,6,-1
 186 1303 l 1,7,-1
 0 1303 l 1,4,-1
186 0 m 1,8,-1
 186 186 l 1,9,-1
 744 186 l 1,10,-1
 744 0 l 1,11,-1
 186 0 l 1,8,-1
186 1489 m 1,12,-1
 186 1676 l 1,13,-1
 744 1676 l 1,14,-1
 744 1489 l 1,15,-1
 186 1489 l 1,12,-1
372 744 m 1,16,-1
 372 930 l 1,17,-1
 744 930 l 1,18,-1
 744 744 l 1,19,-1
 372 744 l 1,16,-1
744 186 m 1,20,-1
 744 744 l 1,21,-1
 930 744 l 1,22,-1
 930 186 l 1,23,-1
 744 186 l 1,20,-1
744 930 m 1,24,-1
 744 1489 l 1,25,-1
 930 1489 l 1,26,-1
 930 930 l 1,27,-1
 744 930 l 1,24,-1
EndSplineSet
Validated: 5
EndChar

StartChar: four
Encoding: 52 52 23
Width: 1117
GlyphClass: 2
Flags: W
LayerCount: 2
Fore
SplineSet
0 372 m 1,0,-1
 0 744 l 1,1,-1
 186 744 l 1,2,-1
 186 558 l 1,3,-1
 558 558 l 1,4,-1
 558 1117 l 1,5,-1
 372 1117 l 1,6,-1
 372 1489 l 1,7,-1
 558 1489 l 1,8,-1
 558 1676 l 1,9,-1
 744 1676 l 1,10,-1
 744 558 l 1,11,-1
 930 558 l 1,12,-1
 930 372 l 1,13,-1
 744 372 l 1,14,-1
 744 0 l 1,15,-1
 558 0 l 1,16,-1
 558 372 l 1,17,-1
 0 372 l 1,0,-1
186 744 m 1,18,-1
 186 1117 l 1,19,-1
 372 1117 l 1,20,-1
 372 744 l 1,21,-1
 186 744 l 1,18,-1
EndSplineSet
Validated: 5
EndChar

StartChar: five
Encoding: 53 53 24
Width: 1117
GlyphClass: 2
Flags: W
LayerCount: 2
Fore
SplineSet
0 186 m 1,0,-1
 0 372 l 1,1,-1
 186 372 l 1,2,-1
 186 186 l 1,3,-1
 0 186 l 1,0,-1
0 744 m 1,4,-1
 0 1676 l 1,5,-1
 930 1676 l 1,6,-1
 930 1489 l 1,7,-1
 186 1489 l 1,8,-1
 186 1117 l 1,9,-1
 744 1117 l 1,10,-1
 744 930 l 1,11,-1
 186 930 l 1,12,-1
 186 744 l 1,13,-1
 0 744 l 1,4,-1
186 0 m 1,14,-1
 186 186 l 1,15,-1
 744 186 l 1,16,-1
 744 0 l 1,17,-1
 186 0 l 1,14,-1
744 186 m 1,18,-1
 744 930 l 1,19,-1
 930 930 l 1,20,-1
 930 186 l 1,21,-1
 744 186 l 1,18,-1
EndSplineSet
Validated: 5
EndChar

StartChar: six
Encoding: 54 54 25
Width: 1117
GlyphClass: 2
Flags: W
LayerCount: 2
Fore
SplineSet
0 186 m 1,0,-1
 0 1489 l 1,1,-1
 186 1489 l 1,2,-1
 186 930 l 1,3,-1
 744 930 l 1,4,-1
 744 744 l 1,5,-1
 186 744 l 1,6,-1
 186 186 l 1,7,-1
 0 186 l 1,0,-1
186 0 m 1,8,-1
 186 186 l 1,9,-1
 744 186 l 1,10,-1
 744 0 l 1,11,-1
 186 0 l 1,8,-1
186 1489 m 1,12,-1
 186 1676 l 1,13,-1
 744 1676 l 1,14,-1
 744 1489 l 1,15,-1
 186 1489 l 1,12,-1
744 186 m 1,16,-1
 744 744 l 1,17,-1
 930 744 l 1,18,-1
 930 186 l 1,19,-1
 744 186 l 1,16,-1
744 1303 m 1,20,-1
 744 1489 l 1,21,-1
 930 1489 l 1,22,-1
 930 1303 l 1,23,-1
 744 1303 l 1,20,-1
EndSplineSet
Validated: 5
EndChar

StartChar: seven
Encoding: 55 55 26
Width: 1117
GlyphClass: 2
Flags: W
LayerCount: 2
Fore
SplineSet
0 1489 m 1,0,-1
 0 1676 l 1,1,-1
 930 1676 l 1,2,-1
 930 1303 l 1,3,-1
 744 1303 l 1,4,-1
 744 1489 l 1,5,-1
 0 1489 l 1,0,-1
186 0 m 1,6,-1
 186 558 l 1,7,-1
 372 558 l 1,8,-1
 372 0 l 1,9,-1
 186 0 l 1,6,-1
372 558 m 1,10,-1
 372 930 l 1,11,-1
 558 930 l 1,12,-1
 558 558 l 1,13,-1
 372 558 l 1,10,-1
558 930 m 1,14,-1
 558 1303 l 1,15,-1
 744 1303 l 1,16,-1
 744 930 l 1,17,-1
 558 930 l 1,14,-1
EndSplineSet
Validated: 5
EndChar

StartChar: eight
Encoding: 56 56 27
Width: 1117
GlyphClass: 2
Flags: W
LayerCount: 2
Fore
SplineSet
0 186 m 1,0,-1
 0 744 l 1,1,-1
 186 744 l 1,2,-1
 186 186 l 1,3,-1
 0 186 l 1,0,-1
0 930 m 1,4,-1
 0 1489 l 1,5,-1
 186 1489 l 1,6,-1
 186 930 l 1,7,-1
 0 930 l 1,4,-1
186 0 m 1,8,-1
 186 186 l 1,9,-1
 744 186 l 1,10,-1
 744 0 l 1,11,-1
 186 0 l 1,8,-1
186 744 m 1,12,-1
 186 930 l 1,13,-1
 744 930 l 1,14,-1
 744 744 l 1,15,-1
 186 744 l 1,12,-1
186 1489 m 1,16,-1
 186 1676 l 1,17,-1
 744 1676 l 1,18,-1
 744 1489 l 1,19,-1
 186 1489 l 1,16,-1
744 186 m 1,20,-1
 744 744 l 1,21,-1
 930 744 l 1,22,-1
 930 186 l 1,23,-1
 744 186 l 1,20,-1
744 930 m 1,24,-1
 744 1489 l 1,25,-1
 930 1489 l 1,26,-1
 930 930 l 1,27,-1
 744 930 l 1,24,-1
EndSplineSet
Validated: 5
EndChar

StartChar: nine
Encoding: 57 57 28
Width: 1117
GlyphClass: 2
Flags: W
LayerCount: 2
Fore
SplineSet
0 186 m 1,0,-1
 0 372 l 1,1,-1
 186 372 l 1,2,-1
 186 186 l 1,3,-1
 0 186 l 1,0,-1
0 930 m 1,4,-1
 0 1489 l 1,5,-1
 186 1489 l 1,6,-1
 186 930 l 1,7,-1
 0 930 l 1,4,-1
186 0 m 1,8,-1
 186 186 l 1,9,-1
 744 186 l 1,10,-1
 744 0 l 1,11,-1
 186 0 l 1,8,-1
186 744 m 1,12,-1
 186 930 l 1,13,-1
 744 930 l 1,14,-1
 744 1489 l 1,15,-1
 930 1489 l 1,16,-1
 930 186 l 1,17,-1
 744 186 l 1,18,-1
 744 744 l 1,19,-1
 186 744 l 1,12,-1
186 1489 m 1,20,-1
 186 1676 l 1,21,-1
 744 1676 l 1,22,-1
 744 1489 l 1,23,-1
 186 1489 l 1,20,-1
EndSplineSet
Validated: 5
EndChar

StartChar: colon
Encoding: 58 58 29
Width: 372
GlyphClass: 2
Flags: W
LayerCount: 2
Fore
SplineSet
0 0 m 1,0,-1
 0 186 l 1,1,-1
 186 186 l 1,2,-1
 186 0 l 1,3,-1
 0 0 l 1,0,-1
0 930 m 1,4,-1
 0 1117 l 1,5,-1
 186 1117 l 1,6,-1
 186 930 l 1,7,-1
 0 930 l 1,4,-1
EndSplineSet
Validated: 1
EndChar

StartChar: semicolon
Encoding: 59 59 30
Width: 558
GlyphClass: 2
Flags: W
LayerCount: 2
Fore
SplineSet
0 0 m 1,0,-1
 186 0 l 1,1,-1
 186 -186 l 1,2,-1
 0 -186 l 1,3,-1
 0 0 l 1,0,-1
186 0 m 1,4,-1
 186 186 l 1,5,-1
 372 186 l 1,6,-1
 372 0 l 1,7,-1
 186 0 l 1,4,-1
186 930 m 1,8,-1
 186 1117 l 1,9,-1
 372 1117 l 1,10,-1
 372 930 l 1,11,-1
 186 930 l 1,8,-1
EndSplineSet
Validated: 5
EndChar

StartChar: equal
Encoding: 61 61 31
Width: 1117
GlyphClass: 2
Flags: W
LayerCount: 2
Fore
SplineSet
0 372 m 1,0,-1
 0 558 l 1,1,-1
 930 558 l 1,2,-1
 930 372 l 1,3,-1
 0 372 l 1,0,-1
0 744 m 1,4,-1
 0 930 l 1,5,-1
 930 930 l 1,6,-1
 930 744 l 1,7,-1
 0 744 l 1,4,-1
EndSplineSet
Validated: 1
EndChar

StartChar: question
Encoding: 63 63 32
Width: 1117
GlyphClass: 2
Flags: W
LayerCount: 2
Fore
SplineSet
0 1303 m 1,0,-1
 0 1489 l 1,1,-1
 186 1489 l 1,2,-1
 186 1303 l 1,3,-1
 0 1303 l 1,0,-1
186 1489 m 1,4,-1
 186 1676 l 1,5,-1
 744 1676 l 1,6,-1
 744 1489 l 1,7,-1
 186 1489 l 1,4,-1
372 0 m 1,8,-1
 372 186 l 1,9,-1
 558 186 l 1,10,-1
 558 0 l 1,11,-1
 372 0 l 1,8,-1
372 372 m 1,12,-1
 372 744 l 1,13,-1
 558 744 l 1,14,-1
 558 372 l 1,15,-1
 372 372 l 1,12,-1
558 744 m 1,16,-1
 558 930 l 1,17,-1
 744 930 l 1,18,-1
 744 744 l 1,19,-1
 558 744 l 1,16,-1
744 930 m 1,20,-1
 744 1489 l 1,21,-1
 930 1489 l 1,22,-1
 930 930 l 1,23,-1
 744 930 l 1,20,-1
EndSplineSet
Validated: 5
EndChar

StartChar: at
Encoding: 64 64 33
Width: 2047
GlyphClass: 2
Flags: W
LayerCount: 2
Fore
SplineSet
0 372 m 1,0,-1
 0 1117 l 1,1,-1
 186 1117 l 1,2,-1
 186 372 l 1,3,-1
 0 372 l 1,0,-1
186 0 m 1,4,-1
 186 372 l 1,5,-1
 372 372 l 1,6,-1
 372 186 l 1,7,-1
 558 186 l 1,8,-1
 558 0 l 1,9,-1
 186 0 l 1,4,-1
186 1117 m 1,10,-1
 186 1489 l 1,11,-1
 558 1489 l 1,12,-1
 558 1303 l 1,13,-1
 372 1303 l 1,14,-1
 372 1117 l 1,15,-1
 186 1117 l 1,10,-1
558 0 m 1,16,-1
 1489 0 l 1,17,-1
 1489 -186 l 1,18,-1
 558 -186 l 1,19,-1
 558 0 l 1,16,-1
558 558 m 1,20,-1
 558 930 l 1,21,-1
 744 930 l 1,22,-1
 744 558 l 1,23,-1
 558 558 l 1,20,-1
558 1489 m 1,24,-1
 558 1676 l 1,25,-1
 1303 1676 l 1,26,-1
 1303 1489 l 1,27,-1
 558 1489 l 1,24,-1
744 372 m 1,28,-1
 744 558 l 1,29,-1
 1117 558 l 1,30,-1
 1117 372 l 1,31,-1
 744 372 l 1,28,-1
744 930 m 1,32,-1
 744 1117 l 1,33,-1
 1303 1117 l 1,34,-1
 1303 558 l 1,35,-1
 1117 558 l 1,36,-1
 1117 930 l 1,37,-1
 744 930 l 1,32,-1
1303 372 m 1,38,-1
 1303 558 l 1,39,-1
 1676 558 l 1,40,-1
 1676 1117 l 1,41,-1
 1862 1117 l 1,42,-1
 1862 372 l 1,43,-1
 1303 372 l 1,38,-1
1303 1303 m 1,44,-1
 1303 1489 l 1,45,-1
 1676 1489 l 1,46,-1
 1676 1117 l 1,47,-1
 1489 1117 l 1,48,-1
 1489 1303 l 1,49,-1
 1303 1303 l 1,44,-1
EndSplineSet
Validated: 5
EndChar

StartChar: A
Encoding: 65 65 34
Width: 1489
GlyphClass: 2
Flags: W
LayerCount: 2
Fore
SplineSet
0 0 m 1,0,-1
 0 372 l 1,1,-1
 186 372 l 1,2,-1
 186 0 l 1,3,-1
 0 0 l 1,0,-1
186 372 m 1,4,-1
 186 930 l 1,5,-1
 372 930 l 1,6,-1
 372 558 l 1,7,-1
 930 558 l 1,8,-1
 930 930 l 1,9,-1
 1117 930 l 1,10,-1
 1117 372 l 1,11,-1
 186 372 l 1,4,-1
372 930 m 1,12,-1
 372 1303 l 1,13,-1
 558 1303 l 1,14,-1
 558 930 l 1,15,-1
 372 930 l 1,12,-1
558 1303 m 1,16,-1
 558 1676 l 1,17,-1
 744 1676 l 1,18,-1
 744 1303 l 1,19,-1
 558 1303 l 1,16,-1
744 930 m 1,20,-1
 744 1303 l 1,21,-1
 930 1303 l 1,22,-1
 930 930 l 1,23,-1
 744 930 l 1,20,-1
1117 0 m 1,24,-1
 1117 372 l 1,25,-1
 1303 372 l 1,26,-1
 1303 0 l 1,27,-1
 1117 0 l 1,24,-1
EndSplineSet
Validated: 5
EndChar

StartChar: B
Encoding: 66 66 35
Width: 1117
GlyphClass: 2
Flags: W
LayerCount: 2
Fore
SplineSet
0 0 m 1,0,-1
 0 1676 l 1,1,-1
 744 1676 l 1,2,-1
 744 1489 l 1,3,-1
 186 1489 l 1,4,-1
 186 930 l 1,5,-1
 744 930 l 1,6,-1
 744 744 l 1,7,-1
 186 744 l 1,8,-1
 186 186 l 1,9,-1
 744 186 l 1,10,-1
 744 0 l 1,11,-1
 0 0 l 1,0,-1
744 186 m 1,12,-1
 744 744 l 1,13,-1
 930 744 l 1,14,-1
 930 186 l 1,15,-1
 744 186 l 1,12,-1
744 930 m 1,16,-1
 744 1489 l 1,17,-1
 930 1489 l 1,18,-1
 930 930 l 1,19,-1
 744 930 l 1,16,-1
EndSplineSet
Validated: 5
EndChar

StartChar: C
Encoding: 67 67 36
Width: 1303
GlyphClass: 2
Flags: W
LayerCount: 2
Fore
SplineSet
0 186 m 1,0,-1
 0 1489 l 1,1,-1
 186 1489 l 1,2,-1
 186 186 l 1,3,-1
 0 186 l 1,0,-1
186 0 m 1,4,-1
 186 186 l 1,5,-1
 930 186 l 1,6,-1
 930 0 l 1,7,-1
 186 0 l 1,4,-1
186 1489 m 1,8,-1
 186 1676 l 1,9,-1
 930 1676 l 1,10,-1
 930 1489 l 1,11,-1
 186 1489 l 1,8,-1
930 186 m 1,12,-1
 930 372 l 1,13,-1
 1117 372 l 1,14,-1
 1117 186 l 1,15,-1
 930 186 l 1,12,-1
930 1303 m 1,16,-1
 930 1489 l 1,17,-1
 1117 1489 l 1,18,-1
 1117 1303 l 1,19,-1
 930 1303 l 1,16,-1
EndSplineSet
Validated: 5
EndChar

StartChar: D
Encoding: 68 68 37
Width: 1303
GlyphClass: 2
Flags: W
LayerCount: 2
Fore
SplineSet
0 0 m 1,0,-1
 0 1676 l 1,1,-1
 744 1676 l 1,2,-1
 744 1489 l 1,3,-1
 186 1489 l 1,4,-1
 186 186 l 1,5,-1
 744 186 l 1,6,-1
 744 0 l 1,7,-1
 0 0 l 1,0,-1
744 186 m 1,8,-1
 744 372 l 1,9,-1
 930 372 l 1,10,-1
 930 186 l 1,11,-1
 744 186 l 1,8,-1
744 1303 m 1,12,-1
 744 1489 l 1,13,-1
 930 1489 l 1,14,-1
 930 1303 l 1,15,-1
 744 1303 l 1,12,-1
930 372 m 1,16,-1
 930 1303 l 1,17,-1
 1117 1303 l 1,18,-1
 1117 372 l 1,19,-1
 930 372 l 1,16,-1
EndSplineSet
Validated: 5
EndChar

StartChar: E
Encoding: 69 69 38
Width: 1117
GlyphClass: 2
Flags: W
LayerCount: 2
Fore
SplineSet
0 0 m 1,0,-1
 0 1676 l 1,1,-1
 930 1676 l 1,2,-1
 930 1489 l 1,3,-1
 186 1489 l 1,4,-1
 186 930 l 1,5,-1
 744 930 l 1,6,-1
 744 744 l 1,7,-1
 186 744 l 1,8,-1
 186 186 l 1,9,-1
 930 186 l 1,10,-1
 930 0 l 1,11,-1
 0 0 l 1,0,-1
EndSplineSet
Validated: 1
EndChar

StartChar: F
Encoding: 70 70 39
Width: 1117
GlyphClass: 2
Flags: W
LayerCount: 2
Fore
SplineSet
0 0 m 1,0,-1
 0 1676 l 1,1,-1
 930 1676 l 1,2,-1
 930 1489 l 1,3,-1
 186 1489 l 1,4,-1
 186 930 l 1,5,-1
 744 930 l 1,6,-1
 744 744 l 1,7,-1
 186 744 l 1,8,-1
 186 0 l 1,9,-1
 0 0 l 1,0,-1
EndSplineSet
Validated: 1
EndChar

StartChar: G
Encoding: 71 71 40
Width: 1303
GlyphClass: 2
Flags: W
LayerCount: 2
Fore
SplineSet
0 186 m 1,0,-1
 0 1489 l 1,1,-1
 186 1489 l 1,2,-1
 186 186 l 1,3,-1
 0 186 l 1,0,-1
186 0 m 1,4,-1
 186 186 l 1,5,-1
 744 186 l 1,6,-1
 744 0 l 1,7,-1
 186 0 l 1,4,-1
186 1489 m 1,8,-1
 186 1676 l 1,9,-1
 930 1676 l 1,10,-1
 930 1489 l 1,11,-1
 186 1489 l 1,8,-1
558 744 m 1,12,-1
 558 930 l 1,13,-1
 1117 930 l 1,14,-1
 1117 0 l 1,15,-1
 930 0 l 1,16,-1
 930 186 l 1,17,-1
 744 186 l 1,18,-1
 744 372 l 1,19,-1
 930 372 l 1,20,-1
 930 744 l 1,21,-1
 558 744 l 1,12,-1
930 1303 m 1,22,-1
 930 1489 l 1,23,-1
 1117 1489 l 1,24,-1
 1117 1303 l 1,25,-1
 930 1303 l 1,22,-1
EndSplineSet
Validated: 5
EndChar

StartChar: H
Encoding: 72 72 41
Width: 1303
GlyphClass: 2
Flags: W
LayerCount: 2
Fore
SplineSet
0 0 m 1,0,-1
 0 1676 l 1,1,-1
 186 1676 l 1,2,-1
 186 930 l 1,3,-1
 930 930 l 1,4,-1
 930 1676 l 1,5,-1
 1117 1676 l 1,6,-1
 1117 0 l 1,7,-1
 930 0 l 1,8,-1
 930 744 l 1,9,-1
 186 744 l 1,10,-1
 186 0 l 1,11,-1
 0 0 l 1,0,-1
EndSplineSet
Validated: 1
EndChar

StartChar: I
Encoding: 73 73 42
Width: 372
GlyphClass: 2
Flags: W
LayerCount: 2
Fore
SplineSet
0 0 m 1,0,-1
 0 1676 l 1,1,-1
 186 1676 l 1,2,-1
 186 0 l 1,3,-1
 0 0 l 1,0,-1
EndSplineSet
Validated: 1
EndChar

StartChar: J
Encoding: 74 74 43
Width: 930
GlyphClass: 2
Flags: W
LayerCount: 2
Fore
SplineSet
0 186 m 1,0,-1
 0 558 l 1,1,-1
 186 558 l 1,2,-1
 186 186 l 1,3,-1
 0 186 l 1,0,-1
186 0 m 1,4,-1
 186 186 l 1,5,-1
 558 186 l 1,6,-1
 558 0 l 1,7,-1
 186 0 l 1,4,-1
558 186 m 1,8,-1
 558 1676 l 1,9,-1
 744 1676 l 1,10,-1
 744 186 l 1,11,-1
 558 186 l 1,8,-1
EndSplineSet
Validated: 5
EndChar

StartChar: K
Encoding: 75 75 44
Width: 1303
GlyphClass: 2
Flags: W
LayerCount: 2
Fore
SplineSet
0 0 m 1,0,-1
 0 1676 l 1,1,-1
 186 1676 l 1,2,-1
 186 1117 l 1,3,-1
 372 1117 l 1,4,-1
 372 744 l 1,5,-1
 186 744 l 1,6,-1
 186 0 l 1,7,-1
 0 0 l 1,0,-1
372 558 m 1,8,-1
 372 744 l 1,9,-1
 558 744 l 1,10,-1
 558 558 l 1,11,-1
 372 558 l 1,8,-1
372 1117 m 1,12,-1
 372 1303 l 1,13,-1
 558 1303 l 1,14,-1
 558 1117 l 1,15,-1
 372 1117 l 1,12,-1
558 372 m 1,16,-1
 558 558 l 1,17,-1
 744 558 l 1,18,-1
 744 372 l 1,19,-1
 558 372 l 1,16,-1
558 1303 m 1,20,-1
 558 1489 l 1,21,-1
 744 1489 l 1,22,-1
 744 1303 l 1,23,-1
 558 1303 l 1,20,-1
744 186 m 1,24,-1
 744 372 l 1,25,-1
 930 372 l 1,26,-1
 930 186 l 1,27,-1
 744 186 l 1,24,-1
744 1489 m 1,28,-1
 744 1676 l 1,29,-1
 930 1676 l 1,30,-1
 930 1489 l 1,31,-1
 744 1489 l 1,28,-1
930 0 m 1,32,-1
 930 186 l 1,33,-1
 1117 186 l 1,34,-1
 1117 0 l 1,35,-1
 930 0 l 1,32,-1
EndSplineSet
Validated: 5
EndChar

StartChar: L
Encoding: 76 76 45
Width: 1117
GlyphClass: 2
Flags: W
LayerCount: 2
Fore
SplineSet
0 0 m 1,0,-1
 0 1676 l 1,1,-1
 186 1676 l 1,2,-1
 186 186 l 1,3,-1
 930 186 l 1,4,-1
 930 0 l 1,5,-1
 0 0 l 1,0,-1
EndSplineSet
Validated: 1
EndChar

StartChar: M
Encoding: 77 77 46
Width: 1489
GlyphClass: 2
Flags: W
LayerCount: 2
Fore
SplineSet
0 0 m 1,0,-1
 0 1676 l 1,1,-1
 186 1676 l 1,2,-1
 186 1303 l 1,3,-1
 372 1303 l 1,4,-1
 372 930 l 1,5,-1
 186 930 l 1,6,-1
 186 0 l 1,7,-1
 0 0 l 1,0,-1
372 558 m 1,8,-1
 372 930 l 1,9,-1
 558 930 l 1,10,-1
 558 558 l 1,11,-1
 372 558 l 1,8,-1
558 186 m 1,12,-1
 558 558 l 1,13,-1
 744 558 l 1,14,-1
 744 186 l 1,15,-1
 558 186 l 1,12,-1
744 558 m 1,16,-1
 744 930 l 1,17,-1
 930 930 l 1,18,-1
 930 558 l 1,19,-1
 744 558 l 1,16,-1
930 930 m 1,20,-1
 930 1303 l 1,21,-1
 1117 1303 l 1,22,-1
 1117 1676 l 1,23,-1
 1303 1676 l 1,24,-1
 1303 0 l 1,25,-1
 1117 0 l 1,26,-1
 1117 930 l 1,27,-1
 930 930 l 1,20,-1
EndSplineSet
Validated: 5
EndChar

StartChar: N
Encoding: 78 78 47
Width: 1303
GlyphClass: 2
Flags: W
LayerCount: 2
Fore
SplineSet
0 0 m 1,0,-1
 0 1676 l 1,1,-1
 186 1676 l 1,2,-1
 186 1489 l 1,3,-1
 372 1489 l 1,4,-1
 372 1117 l 1,5,-1
 186 1117 l 1,6,-1
 186 0 l 1,7,-1
 0 0 l 1,0,-1
372 744 m 1,8,-1
 372 1117 l 1,9,-1
 558 1117 l 1,10,-1
 558 744 l 1,11,-1
 372 744 l 1,8,-1
558 558 m 1,12,-1
 558 744 l 1,13,-1
 744 744 l 1,14,-1
 744 558 l 1,15,-1
 558 558 l 1,12,-1
744 186 m 1,16,-1
 744 558 l 1,17,-1
 930 558 l 1,18,-1
 930 1676 l 1,19,-1
 1117 1676 l 1,20,-1
 1117 0 l 1,21,-1
 930 0 l 1,22,-1
 930 186 l 1,23,-1
 744 186 l 1,16,-1
EndSplineSet
Validated: 5
EndChar

StartChar: O
Encoding: 79 79 48
Width: 1303
GlyphClass: 2
Flags: W
LayerCount: 2
Fore
SplineSet
0 186 m 1,0,-1
 0 1489 l 1,1,-1
 186 1489 l 1,2,-1
 186 186 l 1,3,-1
 0 186 l 1,0,-1
186 0 m 1,4,-1
 186 186 l 1,5,-1
 930 186 l 1,6,-1
 930 0 l 1,7,-1
 186 0 l 1,4,-1
186 1489 m 1,8,-1
 186 1676 l 1,9,-1
 930 1676 l 1,10,-1
 930 1489 l 1,11,-1
 186 1489 l 1,8,-1
930 186 m 1,12,-1
 930 1489 l 1,13,-1
 1117 1489 l 1,14,-1
 1117 186 l 1,15,-1
 930 186 l 1,12,-1
EndSplineSet
Validated: 5
EndChar

StartChar: P
Encoding: 80 80 49
Width: 1303
GlyphClass: 2
Flags: W
LayerCount: 2
Fore
SplineSet
0 0 m 1,0,-1
 0 1676 l 1,1,-1
 930 1676 l 1,2,-1
 930 1489 l 1,3,-1
 186 1489 l 1,4,-1
 186 930 l 1,5,-1
 930 930 l 1,6,-1
 930 744 l 1,7,-1
 186 744 l 1,8,-1
 186 0 l 1,9,-1
 0 0 l 1,0,-1
930 930 m 1,10,-1
 930 1489 l 1,11,-1
 1117 1489 l 1,12,-1
 1117 930 l 1,13,-1
 930 930 l 1,10,-1
EndSplineSet
Validated: 5
EndChar

StartChar: Q
Encoding: 81 81 50
Width: 1303
GlyphClass: 2
Flags: W
LayerCount: 2
Fore
SplineSet
0 186 m 1,0,-1
 0 1489 l 1,1,-1
 186 1489 l 1,2,-1
 186 186 l 1,3,-1
 0 186 l 1,0,-1
186 0 m 1,4,-1
 186 186 l 1,5,-1
 744 186 l 1,6,-1
 744 372 l 1,7,-1
 930 372 l 1,8,-1
 930 1489 l 1,9,-1
 1117 1489 l 1,10,-1
 1117 186 l 1,11,-1
 930 186 l 1,12,-1
 930 0 l 1,13,-1
 186 0 l 1,4,-1
186 1489 m 1,14,-1
 186 1676 l 1,15,-1
 930 1676 l 1,16,-1
 930 1489 l 1,17,-1
 186 1489 l 1,14,-1
558 372 m 1,18,-1
 558 558 l 1,19,-1
 744 558 l 1,20,-1
 744 372 l 1,21,-1
 558 372 l 1,18,-1
930 0 m 1,22,-1
 1117 0 l 1,23,-1
 1117 -186 l 1,24,-1
 930 -186 l 1,25,-1
 930 0 l 1,22,-1
EndSplineSet
Validated: 5
EndChar

StartChar: R
Encoding: 82 82 51
Width: 1303
GlyphClass: 2
Flags: W
LayerCount: 2
Fore
SplineSet
0 0 m 1,0,-1
 0 1676 l 1,1,-1
 930 1676 l 1,2,-1
 930 1489 l 1,3,-1
 186 1489 l 1,4,-1
 186 930 l 1,5,-1
 930 930 l 1,6,-1
 930 744 l 1,7,-1
 186 744 l 1,8,-1
 186 0 l 1,9,-1
 0 0 l 1,0,-1
930 0 m 1,10,-1
 930 744 l 1,11,-1
 1117 744 l 1,12,-1
 1117 0 l 1,13,-1
 930 0 l 1,10,-1
930 930 m 1,14,-1
 930 1489 l 1,15,-1
 1117 1489 l 1,16,-1
 1117 930 l 1,17,-1
 930 930 l 1,14,-1
EndSplineSet
Validated: 5
EndChar

StartChar: S
Encoding: 83 83 52
Width: 1117
GlyphClass: 2
Flags: W
LayerCount: 2
Fore
SplineSet
0 186 m 1,0,-1
 0 372 l 1,1,-1
 186 372 l 1,2,-1
 186 186 l 1,3,-1
 0 186 l 1,0,-1
0 930 m 1,4,-1
 0 1489 l 1,5,-1
 186 1489 l 1,6,-1
 186 930 l 1,7,-1
 0 930 l 1,4,-1
186 0 m 1,8,-1
 186 186 l 1,9,-1
 744 186 l 1,10,-1
 744 0 l 1,11,-1
 186 0 l 1,8,-1
186 744 m 1,12,-1
 186 930 l 1,13,-1
 744 930 l 1,14,-1
 744 744 l 1,15,-1
 186 744 l 1,12,-1
186 1489 m 1,16,-1
 186 1676 l 1,17,-1
 744 1676 l 1,18,-1
 744 1489 l 1,19,-1
 186 1489 l 1,16,-1
744 186 m 1,20,-1
 744 744 l 1,21,-1
 930 744 l 1,22,-1
 930 186 l 1,23,-1
 744 186 l 1,20,-1
744 1303 m 1,24,-1
 744 1489 l 1,25,-1
 930 1489 l 1,26,-1
 930 1303 l 1,27,-1
 744 1303 l 1,24,-1
EndSplineSet
Validated: 5
EndChar

StartChar: T
Encoding: 84 84 53
Width: 1117
GlyphClass: 2
Flags: W
LayerCount: 2
Fore
SplineSet
0 1489 m 1,0,-1
 0 1676 l 1,1,-1
 930 1676 l 1,2,-1
 930 1489 l 1,3,-1
 558 1489 l 1,4,-1
 558 0 l 1,5,-1
 372 0 l 1,6,-1
 372 1489 l 1,7,-1
 0 1489 l 1,0,-1
EndSplineSet
Validated: 1
EndChar

StartChar: U
Encoding: 85 85 54
Width: 1303
GlyphClass: 2
Flags: W
LayerCount: 2
Fore
SplineSet
0 186 m 1,0,-1
 0 1676 l 1,1,-1
 186 1676 l 1,2,-1
 186 186 l 1,3,-1
 0 186 l 1,0,-1
186 0 m 1,4,-1
 186 186 l 1,5,-1
 930 186 l 1,6,-1
 930 0 l 1,7,-1
 186 0 l 1,4,-1
930 186 m 1,8,-1
 930 1676 l 1,9,-1
 1117 1676 l 1,10,-1
 1117 186 l 1,11,-1
 930 186 l 1,8,-1
EndSplineSet
Validated: 5
EndChar

StartChar: V
Encoding: 86 86 55
Width: 1489
GlyphClass: 2
Flags: W
LayerCount: 2
Fore
SplineSet
0 1303 m 1,0,-1
 0 1676 l 1,1,-1
 186 1676 l 1,2,-1
 186 1303 l 1,3,-1
 0 1303 l 1,0,-1
186 744 m 1,4,-1
 186 1303 l 1,5,-1
 372 1303 l 1,6,-1
 372 744 l 1,7,-1
 186 744 l 1,4,-1
372 372 m 1,8,-1
 372 744 l 1,9,-1
 558 744 l 1,10,-1
 558 372 l 1,11,-1
 372 372 l 1,8,-1
558 0 m 1,12,-1
 558 372 l 1,13,-1
 744 372 l 1,14,-1
 744 0 l 1,15,-1
 558 0 l 1,12,-1
744 372 m 1,16,-1
 744 744 l 1,17,-1
 930 744 l 1,18,-1
 930 372 l 1,19,-1
 744 372 l 1,16,-1
930 744 m 1,20,-1
 930 1303 l 1,21,-1
 1117 1303 l 1,22,-1
 1117 744 l 1,23,-1
 930 744 l 1,20,-1
1117 1303 m 1,24,-1
 1117 1676 l 1,25,-1
 1303 1676 l 1,26,-1
 1303 1303 l 1,27,-1
 1117 1303 l 1,24,-1
EndSplineSet
Validated: 5
EndChar

StartChar: W
Encoding: 87 87 56
Width: 2234
GlyphClass: 2
Flags: W
LayerCount: 2
Fore
SplineSet
0 1303 m 1,0,-1
 0 1676 l 1,1,-1
 186 1676 l 1,2,-1
 186 1303 l 1,3,-1
 0 1303 l 1,0,-1
186 744 m 1,4,-1
 186 1303 l 1,5,-1
 372 1303 l 1,6,-1
 372 744 l 1,7,-1
 186 744 l 1,4,-1
372 372 m 1,8,-1
 372 744 l 1,9,-1
 558 744 l 1,10,-1
 558 372 l 1,11,-1
 372 372 l 1,8,-1
558 0 m 1,12,-1
 558 372 l 1,13,-1
 744 372 l 1,14,-1
 744 0 l 1,15,-1
 558 0 l 1,12,-1
744 372 m 1,16,-1
 744 744 l 1,17,-1
 930 744 l 1,18,-1
 930 372 l 1,19,-1
 744 372 l 1,16,-1
930 744 m 1,20,-1
 930 1303 l 1,21,-1
 1117 1303 l 1,22,-1
 1117 744 l 1,23,-1
 930 744 l 1,20,-1
1117 372 m 1,24,-1
 1117 744 l 1,25,-1
 1303 744 l 1,26,-1
 1303 372 l 1,27,-1
 1117 372 l 1,24,-1
1303 0 m 1,28,-1
 1303 372 l 1,29,-1
 1489 372 l 1,30,-1
 1489 0 l 1,31,-1
 1303 0 l 1,28,-1
1489 372 m 1,32,-1
 1489 744 l 1,33,-1
 1676 744 l 1,34,-1
 1676 372 l 1,35,-1
 1489 372 l 1,32,-1
1676 744 m 1,36,-1
 1676 1303 l 1,37,-1
 1862 1303 l 1,38,-1
 1862 744 l 1,39,-1
 1676 744 l 1,36,-1
1862 1303 m 1,40,-1
 1862 1676 l 1,41,-1
 2048 1676 l 1,42,-1
 2048 1303 l 1,43,-1
 1862 1303 l 1,40,-1
EndSplineSet
Validated: 5
EndChar

StartChar: X
Encoding: 88 88 57
Width: 1489
GlyphClass: 2
Flags: W
LayerCount: 2
Fore
SplineSet
0 0 m 1,0,-1
 0 372 l 1,1,-1
 186 372 l 1,2,-1
 186 0 l 1,3,-1
 0 0 l 1,0,-1
0 1303 m 1,4,-1
 0 1676 l 1,5,-1
 186 1676 l 1,6,-1
 186 1303 l 1,7,-1
 0 1303 l 1,4,-1
186 372 m 1,8,-1
 186 558 l 1,9,-1
 372 558 l 1,10,-1
 372 372 l 1,11,-1
 186 372 l 1,8,-1
186 1117 m 1,12,-1
 186 1303 l 1,13,-1
 372 1303 l 1,14,-1
 372 1117 l 1,15,-1
 186 1117 l 1,12,-1
372 558 m 1,16,-1
 372 744 l 1,17,-1
 558 744 l 1,18,-1
 558 558 l 1,19,-1
 372 558 l 1,16,-1
372 930 m 1,20,-1
 372 1117 l 1,21,-1
 558 1117 l 1,22,-1
 558 930 l 1,23,-1
 372 930 l 1,20,-1
558 744 m 1,24,-1
 558 930 l 1,25,-1
 744 930 l 1,26,-1
 744 744 l 1,27,-1
 558 744 l 1,24,-1
744 558 m 1,28,-1
 744 744 l 1,29,-1
 930 744 l 1,30,-1
 930 558 l 1,31,-1
 744 558 l 1,28,-1
744 930 m 1,32,-1
 744 1117 l 1,33,-1
 930 1117 l 1,34,-1
 930 930 l 1,35,-1
 744 930 l 1,32,-1
930 372 m 1,36,-1
 930 558 l 1,37,-1
 1117 558 l 1,38,-1
 1117 372 l 1,39,-1
 930 372 l 1,36,-1
930 1117 m 1,40,-1
 930 1303 l 1,41,-1
 1117 1303 l 1,42,-1
 1117 1117 l 1,43,-1
 930 1117 l 1,40,-1
1117 0 m 1,44,-1
 1117 372 l 1,45,-1
 1303 372 l 1,46,-1
 1303 0 l 1,47,-1
 1117 0 l 1,44,-1
1117 1303 m 1,48,-1
 1117 1676 l 1,49,-1
 1303 1676 l 1,50,-1
 1303 1303 l 1,51,-1
 1117 1303 l 1,48,-1
EndSplineSet
Validated: 5
EndChar

StartChar: Y
Encoding: 89 89 58
Width: 1489
GlyphClass: 2
Flags: W
LayerCount: 2
Fore
SplineSet
0 1303 m 1,0,-1
 0 1676 l 1,1,-1
 186 1676 l 1,2,-1
 186 1303 l 1,3,-1
 0 1303 l 1,0,-1
186 1117 m 1,4,-1
 186 1303 l 1,5,-1
 372 1303 l 1,6,-1
 372 1117 l 1,7,-1
 186 1117 l 1,4,-1
372 930 m 1,8,-1
 372 1117 l 1,9,-1
 558 1117 l 1,10,-1
 558 930 l 1,11,-1
 372 930 l 1,8,-1
558 0 m 1,12,-1
 558 930 l 1,13,-1
 744 930 l 1,14,-1
 744 0 l 1,15,-1
 558 0 l 1,12,-1
744 930 m 1,16,-1
 744 1117 l 1,17,-1
 930 1117 l 1,18,-1
 930 930 l 1,19,-1
 744 930 l 1,16,-1
930 1117 m 1,20,-1
 930 1303 l 1,21,-1
 1117 1303 l 1,22,-1
 1117 1117 l 1,23,-1
 930 1117 l 1,20,-1
1117 1303 m 1,24,-1
 1117 1676 l 1,25,-1
 1303 1676 l 1,26,-1
 1303 1303 l 1,27,-1
 1117 1303 l 1,24,-1
EndSplineSet
Validated: 5
EndChar

StartChar: Z
Encoding: 90 90 59
Width: 1489
GlyphClass: 2
Flags: W
LayerCount: 2
Fore
SplineSet
0 0 m 1,0,-1
 0 372 l 1,1,-1
 186 372 l 1,2,-1
 186 186 l 1,3,-1
 1303 186 l 1,4,-1
 1303 0 l 1,5,-1
 0 0 l 1,0,-1
0 1489 m 1,6,-1
 0 1676 l 1,7,-1
 1303 1676 l 1,8,-1
 1303 1303 l 1,9,-1
 1117 1303 l 1,10,-1
 1117 1489 l 1,11,-1
 0 1489 l 1,6,-1
186 372 m 1,12,-1
 186 558 l 1,13,-1
 372 558 l 1,14,-1
 372 372 l 1,15,-1
 186 372 l 1,12,-1
372 558 m 1,16,-1
 372 744 l 1,17,-1
 558 744 l 1,18,-1
 558 558 l 1,19,-1
 372 558 l 1,16,-1
558 744 m 1,20,-1
 558 930 l 1,21,-1
 744 930 l 1,22,-1
 744 744 l 1,23,-1
 558 744 l 1,20,-1
744 930 m 1,24,-1
 744 1117 l 1,25,-1
 930 1117 l 1,26,-1
 930 930 l 1,27,-1
 744 930 l 1,24,-1
930 1117 m 1,28,-1
 930 1303 l 1,29,-1
 1117 1303 l 1,30,-1
 1117 1117 l 1,31,-1
 930 1117 l 1,28,-1
EndSplineSet
Validated: 5
EndChar

StartChar: bracketleft
Encoding: 91 91 60
Width: 558
GlyphClass: 2
Flags: W
LayerCount: 2
Fore
SplineSet
0 -372 m 1,0,-1
 0 1676 l 1,1,-1
 372 1676 l 1,2,-1
 372 1489 l 1,3,-1
 186 1489 l 1,4,-1
 186 -186 l 1,5,-1
 372 -186 l 1,6,-1
 372 -372 l 1,7,-1
 0 -372 l 1,0,-1
EndSplineSet
Validated: 1
EndChar

StartChar: backslash
Encoding: 92 92 61
Width: 930
GlyphClass: 2
Flags: W
LayerCount: 2
Fore
SplineSet
0 1117 m 1,0,-1
 0 1676 l 1,1,-1
 186 1676 l 1,2,-1
 186 1117 l 1,3,-1
 0 1117 l 1,0,-1
186 744 m 1,4,-1
 186 1117 l 1,5,-1
 372 1117 l 1,6,-1
 372 744 l 1,7,-1
 186 744 l 1,4,-1
372 372 m 1,8,-1
 372 744 l 1,9,-1
 558 744 l 1,10,-1
 558 372 l 1,11,-1
 372 372 l 1,8,-1
558 0 m 1,12,-1
 558 372 l 1,13,-1
 744 372 l 1,14,-1
 744 0 l 1,15,-1
 558 0 l 1,12,-1
EndSplineSet
Validated: 5
EndChar

StartChar: bracketright
Encoding: 93 93 62
Width: 558
GlyphClass: 2
Flags: W
LayerCount: 2
Fore
SplineSet
0 -186 m 1,0,-1
 186 -186 l 1,1,-1
 186 1489 l 1,2,-1
 0 1489 l 1,3,-1
 0 1676 l 1,4,-1
 372 1676 l 1,5,-1
 372 -372 l 1,6,-1
 0 -372 l 1,7,-1
 0 -186 l 1,0,-1
EndSplineSet
Validated: 1
EndChar

StartChar: asciicircum
Encoding: 94 94 63
Width: 1117
GlyphClass: 2
Flags: W
LayerCount: 2
Fore
SplineSet
0 1303 m 1,0,-1
 0 1489 l 1,1,-1
 186 1489 l 1,2,-1
 186 1303 l 1,3,-1
 0 1303 l 1,0,-1
186 1489 m 1,4,-1
 186 1676 l 1,5,-1
 372 1676 l 1,6,-1
 372 1489 l 1,7,-1
 186 1489 l 1,4,-1
372 1676 m 1,8,-1
 372 1862 l 1,9,-1
 558 1862 l 1,10,-1
 558 1676 l 1,11,-1
 372 1676 l 1,8,-1
558 1489 m 1,12,-1
 558 1676 l 1,13,-1
 744 1676 l 1,14,-1
 744 1489 l 1,15,-1
 558 1489 l 1,12,-1
744 1303 m 1,16,-1
 744 1489 l 1,17,-1
 930 1489 l 1,18,-1
 930 1303 l 1,19,-1
 744 1303 l 1,16,-1
EndSplineSet
Validated: 5
EndChar

StartChar: underscore
Encoding: 95 95 64
Width: 1303
GlyphClass: 2
Flags: W
LayerCount: 2
Fore
SplineSet
0 0 m 1,0,-1
 1117 0 l 1,1,-1
 1117 -186 l 1,2,-1
 0 -186 l 1,3,-1
 0 0 l 1,0,-1
EndSplineSet
Validated: 1
EndChar

StartChar: a
Encoding: 97 97 65
Width: 1117
GlyphClass: 2
Flags: W
LayerCount: 2
Fore
SplineSet
0 186 m 1,0,-1
 0 558 l 1,1,-1
 186 558 l 1,2,-1
 186 186 l 1,3,-1
 0 186 l 1,0,-1
186 0 m 1,4,-1
 186 186 l 1,5,-1
 744 186 l 1,6,-1
 744 558 l 1,7,-1
 186 558 l 1,8,-1
 186 744 l 1,9,-1
 744 744 l 1,10,-1
 744 930 l 1,11,-1
 930 930 l 1,12,-1
 930 0 l 1,13,-1
 186 0 l 1,4,-1
186 930 m 1,14,-1
 186 1117 l 1,15,-1
 744 1117 l 1,16,-1
 744 930 l 1,17,-1
 186 930 l 1,14,-1
EndSplineSet
Validated: 5
EndChar

StartChar: b
Encoding: 98 98 66
Width: 1117
GlyphClass: 2
Flags: W
LayerCount: 2
Fore
SplineSet
0 0 m 1,0,-1
 0 1676 l 1,1,-1
 186 1676 l 1,2,-1
 186 1117 l 1,3,-1
 744 1117 l 1,4,-1
 744 930 l 1,5,-1
 186 930 l 1,6,-1
 186 186 l 1,7,-1
 744 186 l 1,8,-1
 744 0 l 1,9,-1
 0 0 l 1,0,-1
744 186 m 1,10,-1
 744 930 l 1,11,-1
 930 930 l 1,12,-1
 930 186 l 1,13,-1
 744 186 l 1,10,-1
EndSplineSet
Validated: 5
EndChar

StartChar: c
Encoding: 99 99 67
Width: 1117
GlyphClass: 2
Flags: W
LayerCount: 2
Fore
SplineSet
0 186 m 1,0,-1
 0 930 l 1,1,-1
 186 930 l 1,2,-1
 186 186 l 1,3,-1
 0 186 l 1,0,-1
186 0 m 1,4,-1
 186 186 l 1,5,-1
 744 186 l 1,6,-1
 744 0 l 1,7,-1
 186 0 l 1,4,-1
186 930 m 1,8,-1
 186 1117 l 1,9,-1
 744 1117 l 1,10,-1
 744 930 l 1,11,-1
 186 930 l 1,8,-1
744 186 m 1,12,-1
 744 372 l 1,13,-1
 930 372 l 1,14,-1
 930 186 l 1,15,-1
 744 186 l 1,12,-1
744 744 m 1,16,-1
 744 930 l 1,17,-1
 930 930 l 1,18,-1
 930 744 l 1,19,-1
 744 744 l 1,16,-1
EndSplineSet
Validated: 5
EndChar

StartChar: d
Encoding: 100 100 68
Width: 1117
GlyphClass: 2
Flags: W
LayerCount: 2
Fore
SplineSet
0 186 m 1,0,-1
 0 930 l 1,1,-1
 186 930 l 1,2,-1
 186 186 l 1,3,-1
 0 186 l 1,0,-1
186 0 m 1,4,-1
 186 186 l 1,5,-1
 744 186 l 1,6,-1
 744 930 l 1,7,-1
 186 930 l 1,8,-1
 186 1117 l 1,9,-1
 744 1117 l 1,10,-1
 744 1676 l 1,11,-1
 930 1676 l 1,12,-1
 930 0 l 1,13,-1
 186 0 l 1,4,-1
EndSplineSet
Validated: 5
EndChar

StartChar: e
Encoding: 101 101 69
Width: 1117
GlyphClass: 2
Flags: W
LayerCount: 2
Fore
SplineSet
0 186 m 1,0,-1
 0 930 l 1,1,-1
 186 930 l 1,2,-1
 186 744 l 1,3,-1
 744 744 l 1,4,-1
 744 930 l 1,5,-1
 930 930 l 1,6,-1
 930 558 l 1,7,-1
 186 558 l 1,8,-1
 186 186 l 1,9,-1
 0 186 l 1,0,-1
186 0 m 1,10,-1
 186 186 l 1,11,-1
 744 186 l 1,12,-1
 744 0 l 1,13,-1
 186 0 l 1,10,-1
186 930 m 1,14,-1
 186 1117 l 1,15,-1
 744 1117 l 1,16,-1
 744 930 l 1,17,-1
 186 930 l 1,14,-1
744 186 m 1,18,-1
 744 372 l 1,19,-1
 930 372 l 1,20,-1
 930 186 l 1,21,-1
 744 186 l 1,18,-1
EndSplineSet
Validated: 5
EndChar

StartChar: f
Encoding: 102 102 70
Width: 558
GlyphClass: 2
Flags: W
LayerCount: 2
Fore
SplineSet
0 0 m 1,0,-1
 0 1489 l 1,1,-1
 186 1489 l 1,2,-1
 186 1117 l 1,3,-1
 372 1117 l 1,4,-1
 372 930 l 1,5,-1
 186 930 l 1,6,-1
 186 0 l 1,7,-1
 0 0 l 1,0,-1
186 1489 m 1,8,-1
 186 1676 l 1,9,-1
 372 1676 l 1,10,-1
 372 1489 l 1,11,-1
 186 1489 l 1,8,-1
EndSplineSet
Validated: 5
EndChar

StartChar: g
Encoding: 103 103 71
Width: 1117
GlyphClass: 2
Flags: W
LayerCount: 2
Fore
SplineSet
0 -186 m 1,0,-1
 744 -186 l 1,1,-1
 744 -372 l 1,2,-1
 0 -372 l 1,3,-1
 0 -186 l 1,0,-1
0 186 m 1,4,-1
 0 930 l 1,5,-1
 186 930 l 1,6,-1
 186 186 l 1,7,-1
 0 186 l 1,4,-1
186 0 m 1,8,-1
 186 186 l 1,9,-1
 744 186 l 1,10,-1
 744 930 l 1,11,-1
 186 930 l 1,12,-1
 186 1117 l 1,13,-1
 930 1117 l 1,14,-1
 930 -186 l 1,15,-1
 744 -186 l 1,16,-1
 744 0 l 1,17,-1
 186 0 l 1,8,-1
EndSplineSet
Validated: 5
EndChar

StartChar: h
Encoding: 104 104 72
Width: 1117
GlyphClass: 2
Flags: W
LayerCount: 2
Fore
SplineSet
0 0 m 1,0,-1
 0 1676 l 1,1,-1
 186 1676 l 1,2,-1
 186 930 l 1,3,-1
 372 930 l 1,4,-1
 372 744 l 1,5,-1
 186 744 l 1,6,-1
 186 0 l 1,7,-1
 0 0 l 1,0,-1
372 930 m 1,8,-1
 372 1117 l 1,9,-1
 744 1117 l 1,10,-1
 744 930 l 1,11,-1
 372 930 l 1,8,-1
744 0 m 1,12,-1
 744 930 l 1,13,-1
 930 930 l 1,14,-1
 930 0 l 1,15,-1
 744 0 l 1,12,-1
EndSplineSet
Validated: 5
EndChar

StartChar: i
Encoding: 105 105 73
Width: 372
GlyphClass: 2
Flags: W
LayerCount: 2
Fore
SplineSet
0 0 m 1,0,-1
 0 1117 l 1,1,-1
 186 1117 l 1,2,-1
 186 0 l 1,3,-1
 0 0 l 1,0,-1
0 1489 m 1,4,-1
 0 1676 l 1,5,-1
 186 1676 l 1,6,-1
 186 1489 l 1,7,-1
 0 1489 l 1,4,-1
EndSplineSet
Validated: 1
EndChar

StartChar: j
Encoding: 106 106 74
Width: 372
GlyphClass: 2
Flags: W
LayerCount: 2
Fore
SplineSet
0 -372 m 1,0,-1
 0 1117 l 1,1,-1
 186 1117 l 1,2,-1
 186 -372 l 1,3,-1
 0 -372 l 1,0,-1
0 1489 m 1,4,-1
 0 1676 l 1,5,-1
 186 1676 l 1,6,-1
 186 1489 l 1,7,-1
 0 1489 l 1,4,-1
EndSplineSet
Validated: 1
EndChar

StartChar: k
Encoding: 107 107 75
Width: 1117
GlyphClass: 2
Flags: W
LayerCount: 2
Fore
SplineSet
0 0 m 1,0,-1
 0 1676 l 1,1,-1
 186 1676 l 1,2,-1
 186 744 l 1,3,-1
 372 744 l 1,4,-1
 372 558 l 1,5,-1
 186 558 l 1,6,-1
 186 0 l 1,7,-1
 0 0 l 1,0,-1
372 372 m 1,8,-1
 372 558 l 1,9,-1
 558 558 l 1,10,-1
 558 372 l 1,11,-1
 372 372 l 1,8,-1
372 744 m 1,12,-1
 372 930 l 1,13,-1
 558 930 l 1,14,-1
 558 744 l 1,15,-1
 372 744 l 1,12,-1
558 186 m 1,16,-1
 558 372 l 1,17,-1
 744 372 l 1,18,-1
 744 186 l 1,19,-1
 558 186 l 1,16,-1
558 930 m 1,20,-1
 558 1117 l 1,21,-1
 744 1117 l 1,22,-1
 744 930 l 1,23,-1
 558 930 l 1,20,-1
744 0 m 1,24,-1
 744 186 l 1,25,-1
 930 186 l 1,26,-1
 930 0 l 1,27,-1
 744 0 l 1,24,-1
EndSplineSet
Validated: 5
EndChar

StartChar: l
Encoding: 108 108 76
Width: 372
GlyphClass: 2
Flags: W
LayerCount: 2
Fore
SplineSet
0 0 m 1,0,-1
 0 1676 l 1,1,-1
 186 1676 l 1,2,-1
 186 0 l 1,3,-1
 0 0 l 1,0,-1
EndSplineSet
Validated: 1
EndChar

StartChar: m
Encoding: 109 109 77
Width: 1489
GlyphClass: 2
Flags: W
LayerCount: 2
Fore
SplineSet
0 0 m 1,0,-1
 0 1117 l 1,1,-1
 558 1117 l 1,2,-1
 558 930 l 1,3,-1
 186 930 l 1,4,-1
 186 0 l 1,5,-1
 0 0 l 1,0,-1
558 0 m 1,6,-1
 558 930 l 1,7,-1
 744 930 l 1,8,-1
 744 0 l 1,9,-1
 558 0 l 1,6,-1
744 930 m 1,10,-1
 744 1117 l 1,11,-1
 1117 1117 l 1,12,-1
 1117 930 l 1,13,-1
 744 930 l 1,10,-1
1117 0 m 1,14,-1
 1117 930 l 1,15,-1
 1303 930 l 1,16,-1
 1303 0 l 1,17,-1
 1117 0 l 1,14,-1
EndSplineSet
Validated: 5
EndChar

StartChar: n
Encoding: 110 110 78
Width: 1117
GlyphClass: 2
Flags: W
LayerCount: 2
Fore
SplineSet
0 0 m 1,0,-1
 0 1117 l 1,1,-1
 186 1117 l 1,2,-1
 186 930 l 1,3,-1
 372 930 l 1,4,-1
 372 744 l 1,5,-1
 186 744 l 1,6,-1
 186 0 l 1,7,-1
 0 0 l 1,0,-1
372 930 m 1,8,-1
 372 1117 l 1,9,-1
 744 1117 l 1,10,-1
 744 930 l 1,11,-1
 372 930 l 1,8,-1
744 0 m 1,12,-1
 744 930 l 1,13,-1
 930 930 l 1,14,-1
 930 0 l 1,15,-1
 744 0 l 1,12,-1
EndSplineSet
Validated: 5
EndChar

StartChar: o
Encoding: 111 111 79
Width: 1117
GlyphClass: 2
Flags: W
LayerCount: 2
Fore
SplineSet
0 186 m 1,0,-1
 0 930 l 1,1,-1
 186 930 l 1,2,-1
 186 186 l 1,3,-1
 0 186 l 1,0,-1
186 0 m 1,4,-1
 186 186 l 1,5,-1
 744 186 l 1,6,-1
 744 0 l 1,7,-1
 186 0 l 1,4,-1
186 930 m 1,8,-1
 186 1117 l 1,9,-1
 744 1117 l 1,10,-1
 744 930 l 1,11,-1
 186 930 l 1,8,-1
744 186 m 1,12,-1
 744 930 l 1,13,-1
 930 930 l 1,14,-1
 930 186 l 1,15,-1
 744 186 l 1,12,-1
EndSplineSet
Validated: 5
EndChar

StartChar: p
Encoding: 112 112 80
Width: 1117
GlyphClass: 2
Flags: W
LayerCount: 2
Fore
SplineSet
0 -372 m 1,0,-1
 0 1117 l 1,1,-1
 744 1117 l 1,2,-1
 744 930 l 1,3,-1
 186 930 l 1,4,-1
 186 186 l 1,5,-1
 744 186 l 1,6,-1
 744 0 l 1,7,-1
 186 0 l 1,8,-1
 186 -372 l 1,9,-1
 0 -372 l 1,0,-1
744 186 m 1,10,-1
 744 930 l 1,11,-1
 930 930 l 1,12,-1
 930 186 l 1,13,-1
 744 186 l 1,10,-1
EndSplineSet
Validated: 5
EndChar

StartChar: q
Encoding: 113 113 81
Width: 1117
GlyphClass: 2
Flags: W
LayerCount: 2
Fore
SplineSet
0 186 m 1,0,-1
 0 930 l 1,1,-1
 186 930 l 1,2,-1
 186 186 l 1,3,-1
 0 186 l 1,0,-1
186 0 m 1,4,-1
 186 186 l 1,5,-1
 744 186 l 1,6,-1
 744 930 l 1,7,-1
 186 930 l 1,8,-1
 186 1117 l 1,9,-1
 930 1117 l 1,10,-1
 930 -372 l 1,11,-1
 744 -372 l 1,12,-1
 744 0 l 1,13,-1
 186 0 l 1,4,-1
EndSplineSet
Validated: 5
EndChar

StartChar: r
Encoding: 114 114 82
Width: 558
GlyphClass: 2
Flags: W
LayerCount: 2
Fore
SplineSet
0 0 m 1,0,-1
 0 1117 l 1,1,-1
 372 1117 l 1,2,-1
 372 930 l 1,3,-1
 186 930 l 1,4,-1
 186 0 l 1,5,-1
 0 0 l 1,0,-1
EndSplineSet
Validated: 1
EndChar

StartChar: s
Encoding: 115 115 83
Width: 930
GlyphClass: 2
Flags: W
LayerCount: 2
Fore
SplineSet
0 186 m 1,0,-1
 0 372 l 1,1,-1
 186 372 l 1,2,-1
 186 186 l 1,3,-1
 0 186 l 1,0,-1
0 744 m 1,4,-1
 0 930 l 1,5,-1
 186 930 l 1,6,-1
 186 744 l 1,7,-1
 0 744 l 1,4,-1
186 0 m 1,8,-1
 186 186 l 1,9,-1
 558 186 l 1,10,-1
 558 0 l 1,11,-1
 186 0 l 1,8,-1
186 558 m 1,12,-1
 186 744 l 1,13,-1
 372 744 l 1,14,-1
 372 558 l 1,15,-1
 186 558 l 1,12,-1
186 930 m 1,16,-1
 186 1117 l 1,17,-1
 558 1117 l 1,18,-1
 558 930 l 1,19,-1
 186 930 l 1,16,-1
372 372 m 1,20,-1
 372 558 l 1,21,-1
 558 558 l 1,22,-1
 558 372 l 1,23,-1
 372 372 l 1,20,-1
558 186 m 1,24,-1
 558 372 l 1,25,-1
 744 372 l 1,26,-1
 744 186 l 1,27,-1
 558 186 l 1,24,-1
558 744 m 1,28,-1
 558 930 l 1,29,-1
 744 930 l 1,30,-1
 744 744 l 1,31,-1
 558 744 l 1,28,-1
EndSplineSet
Validated: 5
EndChar

StartChar: t
Encoding: 116 116 84
Width: 558
GlyphClass: 2
Flags: W
LayerCount: 2
Fore
SplineSet
0 186 m 1,0,-1
 0 1489 l 1,1,-1
 186 1489 l 1,2,-1
 186 1117 l 1,3,-1
 372 1117 l 1,4,-1
 372 930 l 1,5,-1
 186 930 l 1,6,-1
 186 186 l 1,7,-1
 0 186 l 1,0,-1
186 0 m 1,8,-1
 186 186 l 1,9,-1
 372 186 l 1,10,-1
 372 0 l 1,11,-1
 186 0 l 1,8,-1
EndSplineSet
Validated: 5
EndChar

StartChar: u
Encoding: 117 117 85
Width: 1117
GlyphClass: 2
Flags: W
LayerCount: 2
Fore
SplineSet
0 186 m 1,0,-1
 0 1117 l 1,1,-1
 186 1117 l 1,2,-1
 186 186 l 1,3,-1
 0 186 l 1,0,-1
186 0 m 1,4,-1
 186 186 l 1,5,-1
 558 186 l 1,6,-1
 558 0 l 1,7,-1
 186 0 l 1,4,-1
558 186 m 1,8,-1
 558 372 l 1,9,-1
 744 372 l 1,10,-1
 744 1117 l 1,11,-1
 930 1117 l 1,12,-1
 930 0 l 1,13,-1
 744 0 l 1,14,-1
 744 186 l 1,15,-1
 558 186 l 1,8,-1
EndSplineSet
Validated: 5
EndChar

StartChar: v
Encoding: 118 118 86
Width: 1117
GlyphClass: 2
Flags: W
LayerCount: 2
Fore
SplineSet
0 744 m 1,0,-1
 0 1117 l 1,1,-1
 186 1117 l 1,2,-1
 186 744 l 1,3,-1
 0 744 l 1,0,-1
186 372 m 1,4,-1
 186 744 l 1,5,-1
 372 744 l 1,6,-1
 372 372 l 1,7,-1
 186 372 l 1,4,-1
372 0 m 1,8,-1
 372 372 l 1,9,-1
 558 372 l 1,10,-1
 558 0 l 1,11,-1
 372 0 l 1,8,-1
558 372 m 1,12,-1
 558 744 l 1,13,-1
 744 744 l 1,14,-1
 744 372 l 1,15,-1
 558 372 l 1,12,-1
744 744 m 1,16,-1
 744 1117 l 1,17,-1
 930 1117 l 1,18,-1
 930 744 l 1,19,-1
 744 744 l 1,16,-1
EndSplineSet
Validated: 5
EndChar

StartChar: w
Encoding: 119 119 87
Width: 1489
GlyphClass: 2
Flags: W
LayerCount: 2
Fore
SplineSet
0 372 m 1,0,-1
 0 1117 l 1,1,-1
 186 1117 l 1,2,-1
 186 372 l 1,3,-1
 0 372 l 1,0,-1
186 0 m 1,4,-1
 186 372 l 1,5,-1
 372 372 l 1,6,-1
 372 0 l 1,7,-1
 186 0 l 1,4,-1
372 372 m 1,8,-1
 372 744 l 1,9,-1
 558 744 l 1,10,-1
 558 372 l 1,11,-1
 372 372 l 1,8,-1
558 744 m 1,12,-1
 558 1117 l 1,13,-1
 744 1117 l 1,14,-1
 744 744 l 1,15,-1
 558 744 l 1,12,-1
744 372 m 1,16,-1
 744 744 l 1,17,-1
 930 744 l 1,18,-1
 930 372 l 1,19,-1
 744 372 l 1,16,-1
930 0 m 1,20,-1
 930 372 l 1,21,-1
 1117 372 l 1,22,-1
 1117 0 l 1,23,-1
 930 0 l 1,20,-1
1117 372 m 1,24,-1
 1117 1117 l 1,25,-1
 1303 1117 l 1,26,-1
 1303 372 l 1,27,-1
 1117 372 l 1,24,-1
EndSplineSet
Validated: 5
EndChar

StartChar: x
Encoding: 120 120 88
Width: 930
GlyphClass: 2
Flags: W
LayerCount: 2
Fore
SplineSet
0 0 m 1,0,-1
 0 372 l 1,1,-1
 186 372 l 1,2,-1
 186 0 l 1,3,-1
 0 0 l 1,0,-1
0 744 m 1,4,-1
 0 1117 l 1,5,-1
 186 1117 l 1,6,-1
 186 744 l 1,7,-1
 0 744 l 1,4,-1
186 372 m 1,8,-1
 186 744 l 1,9,-1
 558 744 l 1,10,-1
 558 372 l 1,11,-1
 186 372 l 1,8,-1
558 0 m 1,12,-1
 558 372 l 1,13,-1
 744 372 l 1,14,-1
 744 0 l 1,15,-1
 558 0 l 1,12,-1
558 744 m 1,16,-1
 558 1117 l 1,17,-1
 744 1117 l 1,18,-1
 744 744 l 1,19,-1
 558 744 l 1,16,-1
EndSplineSet
Validated: 5
EndChar

StartChar: y
Encoding: 121 121 89
Width: 930
GlyphClass: 2
Flags: W
LayerCount: 2
Fore
SplineSet
-186 -186 m 1,0,-1
 186 -186 l 1,1,-1
 186 -372 l 1,2,-1
 -186 -372 l 1,3,-1
 -186 -186 l 1,0,-1
0 372 m 1,4,-1
 0 1117 l 1,5,-1
 186 1117 l 1,6,-1
 186 372 l 1,7,-1
 0 372 l 1,4,-1
186 -186 m 1,8,-1
 186 372 l 1,9,-1
 558 372 l 1,10,-1
 558 186 l 1,11,-1
 372 186 l 1,12,-1
 372 -186 l 1,13,-1
 186 -186 l 1,8,-1
558 372 m 1,14,-1
 558 1117 l 1,15,-1
 744 1117 l 1,16,-1
 744 372 l 1,17,-1
 558 372 l 1,14,-1
EndSplineSet
Validated: 5
EndChar

StartChar: z
Encoding: 122 122 90
Width: 930
GlyphClass: 2
Flags: W
LayerCount: 2
Fore
SplineSet
0 0 m 1,0,-1
 0 372 l 1,1,-1
 186 372 l 1,2,-1
 186 186 l 1,3,-1
 744 186 l 1,4,-1
 744 0 l 1,5,-1
 0 0 l 1,0,-1
0 930 m 1,6,-1
 0 1117 l 1,7,-1
 744 1117 l 1,8,-1
 744 744 l 1,9,-1
 558 744 l 1,10,-1
 558 930 l 1,11,-1
 0 930 l 1,6,-1
186 372 m 1,12,-1
 186 558 l 1,13,-1
 372 558 l 1,14,-1
 372 372 l 1,15,-1
 186 372 l 1,12,-1
372 558 m 1,16,-1
 372 744 l 1,17,-1
 558 744 l 1,18,-1
 558 558 l 1,19,-1
 372 558 l 1,16,-1
EndSplineSet
Validated: 5
EndChar

StartChar: braceleft
Encoding: 123 123 91
Width: 744
GlyphClass: 2
Flags: W
LayerCount: 2
Fore
SplineSet
0 744 m 1,0,-1
 0 930 l 1,1,-1
 186 930 l 1,2,-1
 186 744 l 1,3,-1
 0 744 l 1,0,-1
186 0 m 1,4,-1
 186 744 l 1,5,-1
 372 744 l 1,6,-1
 372 0 l 1,7,-1
 186 0 l 1,4,-1
186 930 m 1,8,-1
 186 1676 l 1,9,-1
 372 1676 l 1,10,-1
 372 930 l 1,11,-1
 186 930 l 1,8,-1
372 0 m 1,12,-1
 558 0 l 1,13,-1
 558 -186 l 1,14,-1
 372 -186 l 1,15,-1
 372 0 l 1,12,-1
372 1676 m 1,16,-1
 372 1862 l 1,17,-1
 558 1862 l 1,18,-1
 558 1676 l 1,19,-1
 372 1676 l 1,16,-1
EndSplineSet
Validated: 5
EndChar

StartChar: braceright
Encoding: 125 125 92
Width: 744
GlyphClass: 2
Flags: W
LayerCount: 2
Fore
SplineSet
0 0 m 1,0,-1
 186 0 l 1,1,-1
 186 -186 l 1,2,-1
 0 -186 l 1,3,-1
 0 0 l 1,0,-1
0 1676 m 1,4,-1
 0 1862 l 1,5,-1
 186 1862 l 1,6,-1
 186 1676 l 1,7,-1
 0 1676 l 1,4,-1
186 0 m 1,8,-1
 186 744 l 1,9,-1
 372 744 l 1,10,-1
 372 0 l 1,11,-1
 186 0 l 1,8,-1
186 930 m 1,12,-1
 186 1676 l 1,13,-1
 372 1676 l 1,14,-1
 372 930 l 1,15,-1
 186 930 l 1,12,-1
372 744 m 1,16,-1
 372 930 l 1,17,-1
 558 930 l 1,18,-1
 558 744 l 1,19,-1
 372 744 l 1,16,-1
EndSplineSet
Validated: 5
EndChar

StartChar: asciitilde
Encoding: 126 126 93
Width: 1303
GlyphClass: 2
Flags: W
LayerCount: 2
Fore
SplineSet
0 1117 m 1,0,-1
 0 1303 l 1,1,-1
 186 1303 l 1,2,-1
 186 1117 l 1,3,-1
 0 1117 l 1,0,-1
186 1303 m 1,4,-1
 186 1489 l 1,5,-1
 558 1489 l 1,6,-1
 558 1303 l 1,7,-1
 186 1303 l 1,4,-1
558 1117 m 1,8,-1
 558 1303 l 1,9,-1
 930 1303 l 1,10,-1
 930 1117 l 1,11,-1
 558 1117 l 1,8,-1
930 1303 m 1,12,-1
 930 1489 l 1,13,-1
 1117 1489 l 1,14,-1
 1117 1303 l 1,15,-1
 930 1303 l 1,12,-1
EndSplineSet
Validated: 5
EndChar

StartChar: uni00AD
Encoding: 173 173 95
Width: 558
GlyphClass: 2
Flags: W
LayerCount: 2
Fore
SplineSet
0 558 m 1,0,-1
 0 744 l 1,1,-1
 372 744 l 1,2,-1
 372 558 l 1,3,-1
 0 558 l 1,0,-1
EndSplineSet
EndChar

StartChar: uni2010
Encoding: 8208 8208 107
Width: 558
GlyphClass: 2
Flags: W
LayerCount: 2
Fore
SplineSet
0 558 m 1,0,-1
 0 744 l 1,1,-1
 372 744 l 1,2,-1
 372 558 l 1,3,-1
 0 558 l 1,0,-1
EndSplineSet
Validated: 1
EndChar

StartChar: uni2011
Encoding: 8209 8209 108
Width: 558
GlyphClass: 2
Flags: W
LayerCount: 2
Fore
SplineSet
0 558 m 1,0,-1
 0 744 l 1,1,-1
 372 744 l 1,2,-1
 372 558 l 1,3,-1
 0 558 l 1,0,-1
EndSplineSet
Validated: 1
EndChar

StartChar: figuredash
Encoding: 8210 8210 109
Width: 558
GlyphClass: 2
Flags: W
LayerCount: 2
Fore
SplineSet
0 558 m 1,0,-1
 0 744 l 1,1,-1
 372 744 l 1,2,-1
 372 558 l 1,3,-1
 0 558 l 1,0,-1
EndSplineSet
Validated: 1
EndChar

StartChar: endash
Encoding: 8211 8211 110
Width: 1210
GlyphClass: 2
Flags: W
LayerCount: 2
Fore
SplineSet
0 558 m 1,0,-1
 0 744 l 1,1,-1
 1024 744 l 1,2,-1
 1024 558 l 1,3,-1
 0 558 l 1,0,-1
EndSplineSet
Validated: 1
EndChar

StartChar: emdash
Encoding: 8212 8212 111
Width: 2234
GlyphClass: 2
Flags: W
LayerCount: 2
Fore
SplineSet
0 558 m 1,0,-1
 0 744 l 1,1,-1
 2048 744 l 1,2,-1
 2048 558 l 1,3,-1
 0 558 l 1,0,-1
EndSplineSet
Validated: 1
EndChar

StartChar: quoteleft
Encoding: 8216 8216 112
Width: 372
GlyphClass: 2
Flags: W
LayerCount: 2
Fore
SplineSet
0 1117 m 1,0,-1
 0 1676 l 1,1,-1
 186 1676 l 1,2,-1
 186 1117 l 1,3,-1
 0 1117 l 1,0,-1
EndSplineSet
Validated: 1
EndChar

StartChar: quoteright
Encoding: 8217 8217 113
Width: 372
GlyphClass: 2
Flags: W
LayerCount: 2
Fore
SplineSet
0 1117 m 1,0,-1
 0 1676 l 1,1,-1
 186 1676 l 1,2,-1
 186 1117 l 1,3,-1
 0 1117 l 1,0,-1
EndSplineSet
Validated: 1
EndChar

StartChar: quotedblleft
Encoding: 8220 8220 114
Width: 930
GlyphClass: 2
Flags: W
LayerCount: 2
Fore
SplineSet
0 1117 m 1,0,-1
 0 1676 l 1,1,-1
 186 1676 l 1,2,-1
 186 1117 l 1,3,-1
 0 1117 l 1,0,-1
558 1117 m 1,4,-1
 558 1676 l 1,5,-1
 744 1676 l 1,6,-1
 744 1117 l 1,7,-1
 558 1117 l 1,4,-1
EndSplineSet
Validated: 1
EndChar

StartChar: quotedblright
Encoding: 8221 8221 115
Width: 930
GlyphClass: 2
Flags: W
LayerCount: 2
Fore
SplineSet
0 1117 m 1,0,-1
 0 1676 l 1,1,-1
 186 1676 l 1,2,-1
 186 1117 l 1,3,-1
 0 1117 l 1,0,-1
558 1117 m 1,4,-1
 558 1676 l 1,5,-1
 744 1676 l 1,6,-1
 744 1117 l 1,7,-1
 558 1117 l 1,4,-1
EndSplineSet
Validated: 1
EndChar

StartChar: uni25FC
Encoding: 9724 9724 118
Width: 1117
GlyphClass: 2
Flags: W
LayerCount: 2
Fore
SplineSet
0 0 m 1,0,-1
 0 1118 l 1,1,-1
 1118 1118 l 1,2,-1
 1118 0 l 1,3,-1
 0 0 l 1,0,-1
EndSplineSet
Validated: 1
EndChar

StartChar: less
Encoding: 60 60 119
Width: 1117
Flags: W
LayerCount: 2
Fore
SplineSet
744 1303 m 1025,0,-1
744 1117 m 1,1,-1
 744 1303 l 1,2,-1
 930 1303 l 1,3,-1
 930 1117 l 1,4,-1
 744 1117 l 1,1,-1
186 744 m 17,5,-1
 372 744 l 1,6,-1
 372 558 l 1,7,-1
 186 558 l 9,8,-1
 186 744 l 17,5,-1
372 372 m 1,9,-1
 372 558 l 1,10,-1
 558 558 l 1,11,-1
 558 372 l 1,12,-1
 372 372 l 1,9,-1
372 744 m 1,13,-1
 372 930 l 1,14,-1
 558 930 l 1,15,-1
 558 744 l 1,16,-1
 372 744 l 1,13,-1
558 186 m 1,17,-1
 558 372 l 1,18,-1
 744 372 l 1,19,-1
 744 186 l 1,20,-1
 558 186 l 1,17,-1
558 930 m 1,21,-1
 558 1117 l 1,22,-1
 744 1117 l 1,23,-1
 744 930 l 1,24,-1
 558 930 l 1,21,-1
744 0 m 1,25,-1
 744 186 l 1,26,-1
 930 186 l 1,27,-1
 930 0 l 1,28,-1
 744 0 l 1,25,-1
EndSplineSet
Validated: 5
EndChar

StartChar: greater
Encoding: 62 62 120
Width: 1117
Flags: W
LayerCount: 2
Fore
SplineSet
372 1303 m 1029,0,-1
372 1117 m 5,1,-1
 372 1303 l 5,2,-1
 186 1303 l 5,3,-1
 186 1117 l 5,4,-1
 372 1117 l 5,1,-1
930 744 m 21,5,-1
 744 744 l 5,6,-1
 744 558 l 5,7,-1
 930 558 l 13,8,-1
 930 744 l 21,5,-1
744 372 m 5,9,-1
 744 558 l 5,10,-1
 558 558 l 5,11,-1
 558 372 l 5,12,-1
 744 372 l 5,9,-1
744 744 m 5,13,-1
 744 930 l 5,14,-1
 558 930 l 5,15,-1
 558 744 l 5,16,-1
 744 744 l 5,13,-1
558 186 m 5,17,-1
 558 372 l 5,18,-1
 372 372 l 5,19,-1
 372 186 l 5,20,-1
 558 186 l 5,17,-1
558 930 m 5,21,-1
 558 1117 l 5,22,-1
 372 1117 l 5,23,-1
 372 930 l 5,24,-1
 558 930 l 5,21,-1
372 0 m 5,25,-1
 372 186 l 5,26,-1
 186 186 l 5,27,-1
 186 0 l 5,28,-1
 372 0 l 5,25,-1
EndSplineSet
Validated: 5
EndChar

StartChar: igrave
Encoding: 236 236 121
Width: 558
Flags: WO
LayerCount: 2
Fore
SplineSet
186 1302 m 1,0,-1
 186 1489 l 5,1,-1
 372 1489 l 1,2,-1
 372 1302 l 1,3,-1
 186 1302 l 1,0,-1
186 0 m 1,4,-1
 186 1117 l 1,5,-1
 372 1117 l 1,6,-1
 372 0 l 1,7,-1
 186 0 l 1,4,-1
0 1489 m 5,8,-1
 0 1676 l 5,9,-1
 186 1676 l 5,10,-1
 186 1489 l 5,11,-1
 0 1489 l 5,8,-1
EndSplineSet
EndChar

StartChar: adieresis
Encoding: 228 228 122
Width: 1117
Flags: W
LayerCount: 2
Fore
SplineSet
372 1489 m 1029,0,-1
186 1489 m 5,1,-1
 186 1676 l 5,2,-1
 372 1676 l 5,3,-1
 372 1489 l 5,4,-1
 186 1489 l 5,1,-1
744 1489 m 1029,5,-1
558 1489 m 5,6,-1
 558 1676 l 5,7,-1
 744 1676 l 5,8,-1
 744 1489 l 5,9,-1
 558 1489 l 5,6,-1
186 1489 m 1029,10,-1
0 186 m 1,11,-1
 0 558 l 1,12,-1
 186 558 l 1,13,-1
 186 186 l 1,14,-1
 0 186 l 1,11,-1
186 0 m 1,15,-1
 186 186 l 1,16,-1
 744 186 l 1,17,-1
 744 558 l 1,18,-1
 186 558 l 1,19,-1
 186 744 l 1,20,-1
 744 744 l 1,21,-1
 744 930 l 1,22,-1
 930 930 l 1,23,-1
 930 0 l 1,24,-1
 186 0 l 1,15,-1
186 930 m 1,25,-1
 186 1117 l 1,26,-1
 744 1117 l 1,27,-1
 744 930 l 1,28,-1
 186 930 l 1,25,-1
EndSplineSet
EndChar

StartChar: grave
Encoding: 96 96 123
Width: 744
Flags: W
LayerCount: 2
Fore
SplineSet
0 1489 m 1,0,-1
 0 1676 l 1,1,-1
 372 1676 l 1,2,-1
 372 1489 l 1,3,-1
 558 1489 l 1,4,-1
 558 1303 l 1,5,-1
 186 1303 l 1,6,-1
 186 1489 l 1,7,-1
 0 1489 l 1,0,-1
EndSplineSet
EndChar
